<?xml version="1.0" encoding="UTF-8"?>
<svg id="Layer_2" data-name="Layer 2" xmlns="http://www.w3.org/2000/svg" viewBox="0 0 1272 215">
  <defs>
    <style>
      .cls-1 {
        fill: #ed1a62;
      }
    </style>
  </defs>
  <g id="Layer_1-2" data-name="Layer 1">
    <g>
      <path d="M116.4,165.1c-13.9,0-26.6-1-38.1-3s-21.2-4.6-29.1-7.8c-7.9-3.2-14.8-7.1-20.9-11.8-6.1-4.6-10.8-9.3-14.3-14s-6.3-9.8-8.5-15.2c-2.3-5.4-3.7-10.4-4.4-14.8C.4,94,0,89.6,0,85.1v-6.2C0,72,.7,65.5,2.1,59.4c1.4-6.1,4.6-13,9.5-20.6,4.9-7.6,11.3-14.1,19.3-19.5,7.9-5.4,19.3-10,34-13.7C79.6,1.9,96.8,0,116.4,0h9.6c19.2,0,36.1,1.6,50.7,4.8,14.6,3.2,26,7.1,34,11.8,8,4.6,14.6,10,19.6,16.1,5.1,6.1,8.3,11.5,9.8,16.3,1.5,4.8,2.2,9.4,2.2,13.8v2.4h-57.7c-.5-1.7-1.1-3.3-1.8-4.6-.7-1.4-2.5-3.5-5.4-6.5-2.9-3-6.4-5.5-10.5-7.5-4.1-2-10.2-3.8-18.2-5.5-8-1.6-17.3-2.5-27.7-2.5s-23.1,1.2-31.9,3.5c-8.8,2.4-15.4,5.6-19.9,9.8-4.4,4.1-7.6,8.5-9.5,13.1-1.9,4.6-2.8,9.6-2.8,15v2.6c0,5.1,1.1,10.1,3.2,14.9s5.4,9.4,9.9,13.9c4.5,4.5,11.2,8.1,20.1,10.8,8.9,2.7,19.3,4.1,31.3,4.1,35.7,0,56.7-9.2,63.1-27.7.2-.3.2-.5.2-.6h57.7v2.4c0,4.7-.8,9.6-2.5,14.6-1.6,5-5,10.6-10.2,16.8-5.1,6.2-11.8,11.7-19.9,16.4-8.1,4.7-19.4,8.7-34,12-14.6,3.3-31.3,4.9-50.1,4.9h-9.6Z"/>
      <path d="M313,161.8h-51.8V3.1h51.8v158.7Z"/>
      <path d="M421.4,163c-13.9,0-26.3-1.2-37.1-3.7-10.8-2.5-19.4-5.7-25.9-9.5s-11.9-8.5-16-13.9c-4.2-5.4-7.1-10.7-8.6-15.9-1.5-5.2-2.3-10.6-2.3-16.3v-3.8c0-5.7.8-11.1,2.3-16.2,1.6-5.1,4.4-10.3,8.5-15.6,4.1-5.3,9.4-9.8,15.9-13.5,6.5-3.8,15.2-6.8,25.9-9.2,10.8-2.3,23.1-3.5,37.1-3.5h16.5c59.7,0,89.5,19.3,89.5,58v3.8c0,39.5-29.8,59.3-89.5,59.3h-16.3ZM464.1,123.3c7-5.8,10.5-12.8,10.5-20.9v-1.1c0-8.2-3.5-15.1-10.5-20.7-7-5.5-18.4-8.3-34.4-8.3h-.2c-16.3,0-27.9,2.7-34.8,8.2-6.9,5.5-10.3,12.4-10.3,20.8v1.1c0,8.1,3.5,15.1,10.5,20.9,7,5.8,18.5,8.7,34.6,8.7s27.7-2.9,34.6-8.7Z"/>
      <path d="M621.3,165.1c-53.6,0-80.4-13.6-80.4-40.7v-1.3h53.5c0,10.4,10.7,15.6,32.1,15.6h.5c9,0,16-.6,21-1.7,5-1.1,8.2-2.4,9.4-3.8s1.9-3.2,1.9-5.3v-.4c0-3.3-1.7-5.7-5.2-7.3-3.5-1.6-10.9-2.5-22.2-2.8l-22.3-.4c-13-.3-24.1-1.5-33.4-3.6-9.2-2.1-16.2-5-20.9-8.5-4.7-3.6-8.1-7.3-10.1-11.1-2-3.8-3-8-3-12.6v-1.3c0-4,.5-7.5,1.5-10.7,1-3.1,3.2-6.3,6.5-9.6,3.3-3.3,7.8-6,13.4-8.1,5.6-2.1,13.3-3.9,23-5.3,9.8-1.4,21.3-2.1,34.6-2.1h9.3c52.2,0,78.4,12,78.4,36v1.5h-52.8c-.3-1.4-.8-2.7-1.4-3.7-.6-1.1-1.9-2.3-3.7-3.6s-5-2.4-9.4-3.2c-4.4-.8-9.9-1.2-16.4-1.2h-.2c-11.8,0-19.7.6-23.7,1.9-4,1.3-6,3.5-6,6.6v.4c0,2.8,1.9,5,5.6,6.5,3.7,1.5,10.6,2.4,20.7,2.7l22.3.4c18.8.3,33.3,1.9,43.7,4.9,10.4,3,17.3,6.9,20.8,11.6,3.5,4.8,5.2,11.3,5.2,19.5v1.3c0,5.8-1.1,10.9-3.4,15.2-2.2,4.3-6.2,8.4-11.9,12.3-5.7,3.8-14.1,6.8-25.5,8.8-11.3,2.1-25.3,3.1-41.9,3.1h-9.5Z"/>
      <path class="cls-1" d="M1221.2,51.8h0s-38.1,81.8-38.1,81.8l-39.2-81.8h-54.4l58.3,110.6c3.8,7.2,5.7,11.5,5.7,12.8,0,2.5-2,3.8-5.9,3.8h-121.2s63.1-127.3,63.1-127.3h-50.8l-38.1,81.8-39.2-81.8h-54.4l58.3,110.6c3.8,7.2,5.7,11.5,5.7,12.8,0,2.5-2,3.8-5.9,3.8h-123.9s63-127.2,63-127.2h-50.8l-38.1,81.8-39.2-81.8h-54.4l58.3,110.6c3.8,7.2,5.7,11.5,5.7,12.8,0,2.5-1.9,3.8-5.8,3.8H74.6s0,0,0,0H0s0,36,0,36h823.1c0,0,340,0,340,0,10.6,0,19.2-2.7,25.8-8.1,6.7-5.4,13-14.1,19-26.1l63.9-129.1h-50.8Z"/>
    </g>
  </g>
</svg>