<?xml version="1.0" encoding="UTF-8"?>
<svg id="Layer_2" data-name="Layer 2" xmlns="http://www.w3.org/2000/svg" viewBox="0 0 1375.8 255.5">
  <defs>
    <style>
      .cls-1 {
        fill: #e20120;
      }
    </style>
  </defs>
  <g id="Layer_1-2" data-name="Layer 1">
    <g>
      <path class="cls-1" d="M0,103C0,41.3,43.4,0,109.8,0s92.4,27.1,100.8,71.3l-50.3,8.7c-4.9-26.5-23-41.5-51.6-41.5s-57.9,24.6-57.9,63.9,22.4,63.7,59,63.7,45.6-14.2,51.4-39.9l50,10.7c-12.3,42.6-48.4,68-102.5,68S0,165,0,103Z"/>
      <path class="cls-1" d="M286.1,199.5h-46.7V1.4h46.7v198.1Z"/>
      <path class="cls-1" d="M315,130.9c0-46.2,35.5-72.1,85.2-72.1s85.5,26,85.5,72.1-35.8,72.7-85.5,72.7-85.2-26.5-85.2-72.7ZM438.3,130.9c0-26.8-14.8-40.7-38-40.7s-38,13.9-38,40.7,14.8,41.3,38,41.3,38-14.5,38-41.3Z"/>
      <path class="cls-1" d="M496.8,171l25.1-21.3c12.8,15.3,32.2,23.5,60.7,23.5s27.6-4.1,27.6-12.6-4.1-10.7-19.7-12.3l-36.3-3.6c-33.3-4.1-49.2-18-49.2-42.1s25.7-44,71.6-44,59.8,9.3,75.1,26l-21.9,22.4c-13.9-12.6-31.1-18.6-55.7-18.6s-26.5,3.6-26.5,11.5,4.9,9.8,17.5,11.2l40.2,4.1c33.6,3.8,47,17.8,47,41.8s-24.3,46.5-71.9,46.5-66.7-11.2-83.6-32.5Z"/>
      <path class="cls-1" d="M667.5,253.6v-34.7c7.9,1.4,13.1,1.6,18.6,1.6,16.4,0,28.7-5.7,34.2-17.2l1.1-4.1-65-136.3h51.6l32.8,83.6c2.5,6,3.3,9.6,4.4,15.3h.8c.8-4.9,1.9-8.5,4.1-15l31.4-83.9h48.4l-61.8,142.9c-15.3,35.5-38,49.7-77.3,49.7s-15.6-.5-23.2-1.9Z"/>
      <path class="cls-1" d="M849.5,253.6v-34.7c7.9,1.4,13.1,1.6,18.6,1.6,16.4,0,28.7-5.7,34.2-17.2l1.1-4.1-65-136.3h51.6l32.8,83.6c2.5,6,3.3,9.6,4.4,15.3h.8c.8-4.9,1.9-8.5,4.1-15l31.4-83.9h48.4l-61.8,142.9c-15.3,35.5-38,49.7-77.3,49.7s-15.6-.5-23.2-1.9Z"/>
      <path class="cls-1" d="M1031.5,253.6v-34.7c7.9,1.4,13.1,1.6,18.6,1.6,16.4,0,28.7-5.7,34.2-17.2l1.1-4.1-65-136.3h51.6l32.8,83.6c2.5,6,3.3,9.6,4.4,15.3h.8c.8-4.9,1.9-8.5,4.1-15l31.4-83.9h48.4l-61.8,142.9c-15.3,35.5-38,49.7-77.3,49.7s-15.6-.5-23.2-1.9Z"/>
      <path class="cls-1" d="M1213.5,253.6v-34.7c7.9,1.4,13.1,1.6,18.6,1.6,16.4,0,28.7-5.7,34.2-17.2l1.1-4.1-65-136.3h51.6l32.8,83.6c2.5,6,3.3,9.6,4.4,15.3h.8c.8-4.9,1.9-8.5,4.1-15l31.4-83.9h48.4l-61.8,142.9c-15.3,35.5-38,49.7-77.3,49.7s-15.6-.5-23.2-1.9Z"/>
    </g>
  </g>
</svg>