<svg
  viewBox="0 0 158 194"
  fill="none"
  xmlns="http://www.w3.org/2000/svg"
>
  <path
    fillRule="evenodd"
    clipRule="evenodd"
    fill="#262626"
    d="M117.712 137.95C118.819 138.535 119.805 138.459 120.524 137.314V137.32C121.217 136.238 120.568 135.418 119.887 134.705C118.789 133.566 117.468 132.665 116.007 132.059C114.546 131.453 112.976 131.153 111.394 131.18C110.465 131.161 109.428 131.549 109.428 132.574C109.543 133.401 109.938 134.165 110.547 134.737C110.828 135.03 111.286 135.163 111.751 135.297L111.751 135.297L111.751 135.297L111.751 135.297C111.972 135.361 112.194 135.425 112.399 135.507C112.358 135.702 112.324 135.877 112.294 136.038C112.238 136.328 112.191 136.574 112.125 136.811C112.027 137.195 111.899 137.572 111.744 137.937C107.563 147.519 100.527 154.269 90.7476 157.61C73.4546 163.514 58.1848 159.531 45.46 146.641C38.9831 140.094 35.7319 131.861 35.5983 122.553C35.5961 122.389 35.5936 122.226 35.591 122.062C35.5553 119.795 35.519 117.495 36.6226 115.382C36.7737 115.393 36.9077 115.401 37.0301 115.407H37.0303C37.2582 115.42 37.4457 115.43 37.6279 115.459C38.824 115.637 39.9247 115.37 40.2492 114.142C40.5737 112.914 39.7656 112.233 38.7222 111.597C36.279 110.184 33.6768 109.993 30.9918 110.375C30.2996 110.432 29.6449 110.713 29.1277 111.177C28.8917 111.461 28.7139 111.788 28.6048 112.141C28.4956 112.494 28.4571 112.864 28.4914 113.232C28.5742 113.747 29.2676 114.326 29.9039 114.504C30.3442 114.628 30.8424 114.544 31.3563 114.457L31.3564 114.457C31.5851 114.419 31.8168 114.38 32.048 114.358C30.1372 123.619 31.6734 133.26 36.3681 141.468C45.7399 158.182 65.0117 166.848 83.31 163.959C94.0816 162.261 103.116 157.457 110.115 149.014C112.978 145.585 114.861 141.557 116.694 137.314C117.075 137.574 117.4 137.778 117.712 137.95ZM28.6505 53.4125C28.4819 53.6123 28.3995 53.8709 28.4215 54.1314L28.4342 54.1378C28.7364 55.0198 29.1104 55.8779 29.4866 56.7411L29.5222 56.8227C29.5555 56.8978 29.6436 56.9537 29.7326 57.0102C29.7793 57.0399 29.8263 57.0698 29.8657 57.1026C31.1007 58.1008 32.5864 58.5163 33.942 58.8954C34.4442 59.0359 34.9284 59.1713 35.3755 59.3295C37.0361 59.6285 37.3034 59.4567 37.5579 58.4578C37.6639 58.0658 37.6898 57.6564 37.6341 57.2541C37.5783 56.8518 37.442 56.4649 37.2334 56.1165C36.6353 55.0349 36.7244 54.9267 37.7106 54.1696C38.1037 53.8674 38.4234 53.4802 38.6458 53.0371C38.8651 52.531 39.017 51.9984 39.0976 51.4528C39.1422 51.2047 39.1485 50.8229 39.0022 50.7021C38.8861 50.6157 38.7517 50.557 38.6095 50.5305C38.4672 50.504 38.3208 50.5105 38.1814 50.5494C37.7606 50.7323 37.3632 50.9651 36.998 51.2428C36.2218 51.7518 35.7955 51.6564 35.3119 50.8739C35.0678 50.4602 34.7913 50.0666 34.4849 49.6968C33.8105 48.9333 33.136 48.1253 33.2124 47.0882C33.2611 46.8161 33.2074 46.5356 33.0618 46.3007C32.9161 46.0658 32.6887 45.8931 32.4234 45.8157C32.2939 45.7558 32.1718 45.6827 32.05 45.6099C31.6935 45.3965 31.3403 45.185 30.8137 45.3131C29.9931 45.5343 29.6729 46.043 29.2882 46.6541L29.2881 46.6543L29.2868 46.6563C29.2514 46.7125 29.2155 46.7696 29.1786 46.8274C28.7396 47.3669 28.1401 47.7525 27.4671 47.9281C27.0203 48.0785 26.8773 47.6867 26.7619 47.3705C26.7163 47.2455 26.675 47.1322 26.6209 47.0691C26.43 46.8464 25.8892 46.6365 25.6983 46.751C25.4064 46.914 25.1572 47.1438 24.9711 47.4216C24.785 47.6993 24.6673 48.0172 24.6276 48.3492C24.5878 48.6812 24.6272 49.0179 24.7426 49.3317C24.8579 49.6455 25.0459 49.9276 25.2911 50.1549C25.6987 50.535 26.0597 50.9621 26.3664 51.4274C26.6082 51.8727 26.9263 52.229 27.3462 52C27.5765 51.869 27.7363 51.5201 27.8688 51.2308C27.923 51.1125 27.9726 51.0041 28.0206 50.9247C28.0819 50.8234 28.1292 50.688 28.1768 50.5519C28.2576 50.3205 28.3392 50.087 28.4914 50.0149C29.3997 49.6106 30.3351 49.2705 31.2909 48.9969C31.4373 48.946 31.8572 49.3469 31.8572 49.3469C31.5061 50.0134 31.8507 50.4461 32.2247 50.9157C32.2506 50.9482 32.2766 50.9809 32.3025 51.0138C32.4262 51.2642 32.46 51.5495 32.398 51.8218C32.3216 52.299 32.5061 52.668 32.9579 52.7762C33.4068 52.8891 33.8728 52.9172 34.3321 52.8589C34.8538 52.7444 35.2165 52.9035 35.3629 53.3806C35.3974 53.556 35.3919 53.7368 35.3469 53.9097C35.3019 54.0826 35.2186 54.2431 35.1031 54.3794C34.9876 54.5157 34.8429 54.6243 34.6797 54.697C34.5165 54.7697 34.339 54.8047 34.1604 54.7995C33.4429 54.6646 32.7458 54.4379 32.0862 54.125C31.5327 53.8642 31.1064 53.7306 30.6928 54.3032C30.362 54.7549 30.063 54.6722 29.853 54.1823C29.8287 54.1249 29.8114 54.0561 29.7942 53.9882C29.7619 53.8604 29.7305 53.7362 29.6557 53.6988C29.3427 53.5382 29.0011 53.4409 28.6505 53.4125ZM39.6538 55.7677L39.6193 55.792L39.6066 55.7984C39.1485 56.1165 39.1994 56.4982 39.4984 56.9118C39.9193 57.4185 40.288 57.9663 40.5991 58.5469C41.1717 59.8449 41.4708 59.7558 42.8769 59.1195C42.9768 59.076 43.056 58.988 43.1388 58.896L43.1388 58.896C43.1772 58.8534 43.2163 58.8099 43.2586 58.7696C43.2004 58.5639 43.1193 58.3655 43.0168 58.1779C42.8375 57.9341 42.6628 57.6892 42.4887 57.4454L42.4887 57.4453L42.4886 57.4452L42.4886 57.4452L42.4885 57.4451C42.045 56.8237 41.6061 56.2086 41.1081 55.6329C40.6301 55.0805 40.1158 55.4425 39.6538 55.7677ZM56.8763 56.9497C56.8201 57.0649 56.7889 57.1908 56.7851 57.319L56.7596 57.3062C56.6769 57.8725 56.8487 58.2924 57.4849 58.2924C57.5908 58.3423 57.7076 58.3643 57.8243 58.3564C57.9411 58.3484 58.0539 58.3108 58.152 58.2471C58.2501 58.1834 58.3303 58.0956 58.3851 57.9922C58.4398 57.8888 58.4672 57.7731 58.4648 57.6562C58.5058 57.5356 58.5217 57.4079 58.5116 57.2809C58.5015 57.1539 58.4655 57.0303 58.406 56.9177C58.3464 56.8051 58.2644 56.7059 58.1651 56.6261C58.0658 56.5463 57.9513 56.4876 57.8285 56.4537C57.7019 56.4337 57.5724 56.441 57.4487 56.475C57.3251 56.509 57.2101 56.5689 57.1114 56.6507C57.0127 56.7326 56.9326 56.8345 56.8763 56.9497ZM60.6759 59.9576C60.5781 60.0649 60.5033 60.1911 60.4562 60.3284C60.4096 60.4851 60.396 60.6498 60.4163 60.8121C60.4365 60.9744 60.4902 61.1307 60.5739 61.2712C60.6576 61.4117 60.7695 61.5333 60.9025 61.6284C61.0356 61.7234 61.1869 61.7899 61.347 61.8235C61.9577 61.9508 62.1931 61.6009 62.2631 60.9646C62.2242 60.8457 62.2479 60.6945 62.2728 60.5367C62.325 60.2045 62.3819 59.8431 61.8686 59.6922C61.7346 59.6365 61.5906 59.6089 61.4454 59.611C61.3003 59.6132 61.1571 59.645 61.0248 59.7047C60.8924 59.7643 60.7737 59.8504 60.6759 59.9576ZM79.3208 60.8629C79.1808 61.27 79.0408 61.6836 78.9072 62.0908L78.7354 62.2053C78.7905 62.3155 78.8371 62.4416 78.8838 62.568L78.8838 62.5681C78.9882 62.8503 79.0932 63.1345 79.2953 63.2488C79.4166 63.3259 79.5531 63.3757 79.6956 63.3948C79.838 63.414 79.9829 63.402 80.1203 63.3596C80.2576 63.3173 80.3841 63.2456 80.491 63.1495C80.598 63.0535 80.6828 62.9354 80.7396 62.8034C80.8769 62.5592 81.0021 62.3069 81.128 62.0529C81.1596 61.9893 81.1912 61.9255 81.2231 61.8617C81.4265 61.4738 81.6241 61.0757 81.8228 60.6756L81.8233 60.6746L81.8235 60.6742L81.824 60.6732L81.8242 60.6729L81.8247 60.6719L81.8249 60.6715L81.8251 60.6712L81.8252 60.6709C82.0983 60.121 82.3733 59.5673 82.6674 59.0305C82.8202 58.771 82.9968 58.5334 83.1729 58.2966C83.312 58.1094 83.4508 57.9227 83.5772 57.7261C84.0925 56.9436 84.6015 56.1546 85.0787 55.353C85.3396 54.914 85.6068 54.4304 85.1424 53.966C84.6865 53.505 84.2265 53.0803 83.7432 52.6341L83.7432 52.634L83.7431 52.634L83.743 52.6339C83.6194 52.5198 83.4942 52.4042 83.3672 52.2863C82.7437 51.7073 82.2284 51.8727 82.0375 52.6935C82.0125 52.8202 81.9806 52.9456 81.9421 53.0689C81.0641 55.6605 80.1903 58.2585 79.3208 60.8629ZM86.523 56.1801C86.3003 56.0528 85.8931 56.1864 85.6005 56.301C85.4588 56.3576 85.3574 56.5506 85.2695 56.718C85.2588 56.7385 85.2482 56.7587 85.2378 56.7782C84.2961 58.5172 83.3652 60.2605 82.4447 62.0081C82.133 62.5743 82.3556 63.0642 83.2018 63.2106C83.56 63.1119 83.8923 62.936 84.1753 62.6952C85.0335 61.778 85.5071 60.5665 85.4986 59.3104C85.4399 59.0117 85.4721 58.7022 85.5912 58.422C85.7103 58.1419 85.9108 57.9039 86.1667 57.7389C86.4321 57.5812 86.631 57.3325 86.7266 57.039C86.7839 56.7654 86.7457 56.3073 86.523 56.1801ZM89.456 56.5746C88.8223 57.251 88.2376 57.9718 87.7064 58.7314C87.4212 59.2672 87.1787 59.8245 86.981 60.3984C86.7849 60.8146 86.5788 61.2258 86.4037 61.5749L86.4033 61.5757C86.3002 61.7813 86.208 61.9654 86.1349 62.1162C85.9631 63.1088 86.3385 64.114 86.8093 64.1967C87.5208 64.3216 87.8404 63.7485 88.1106 63.2643L88.1263 63.236C88.5362 62.4975 88.9186 61.7453 89.3008 60.9935L89.3011 60.9929L89.3012 60.9927L89.3013 60.9926L89.3013 60.9924L89.3014 60.9923L89.3015 60.9921L89.3015 60.992C89.6073 60.3906 89.9129 59.7894 90.2323 59.1959C90.5074 58.6859 90.802 58.1864 91.0964 57.6872C91.4081 57.1588 91.7195 56.6308 92.0074 56.091C92.0868 55.799 92.1105 55.4947 92.0773 55.1939C91.7552 55.1974 91.4339 55.2272 91.1166 55.283C90.9843 55.3149 90.8716 55.4189 90.7597 55.5221L90.7313 55.5483C90.6967 55.58 90.6621 55.6111 90.6268 55.6393C90.2124 55.9195 89.8208 56.2322 89.456 56.5746ZM107.328 54.8376C107.443 54.8949 107.843 54.704 107.843 54.615C107.817 54.3674 107.748 54.1263 107.64 53.9024L107.277 53.5906C107.232 53.6605 107.177 53.7346 107.12 53.8092C106.992 53.979 106.862 54.1515 106.857 54.2841C106.851 54.475 107.118 54.7358 107.328 54.8376ZM94.5135 54.2919C94.0741 55.0722 93.6349 55.8522 93.2099 56.6382L93.2354 56.6446C92.2269 58.5199 91.1727 60.3593 90.1243 62.1885L90.1242 62.1886L90.1241 62.1888L90.1219 62.1926C89.7092 62.9126 89.2975 63.631 88.8898 64.3494C88.2811 65.4273 88.2917 65.4373 89.1858 66.2874L89.1952 66.2963C89.9015 66.9707 90.086 66.958 90.5377 66.0927C91.1511 64.9231 91.755 63.7487 92.3589 62.5743L92.3592 62.5737L92.3595 62.5731L92.3598 62.5726L92.3601 62.572L92.3604 62.5714L92.3607 62.5709C92.965 61.3955 93.5694 60.2201 94.1833 59.0495C95.2141 57.0708 96.2638 55.0985 97.3645 53.1516C97.9817 52.0763 98.6815 51.0138 99.3877 49.9704C99.5033 49.8077 99.7052 49.7084 99.9083 49.6086C100.007 49.56 100.106 49.5112 100.196 49.455L100.005 50.5239C99.9954 50.5759 99.9759 50.6256 99.9476 50.6703C99.7073 51.1292 99.4658 51.5876 99.2241 52.0462L99.2222 52.0498L99.2203 52.0535L99.2194 52.055C98.6822 53.0745 98.1446 54.0947 97.6191 55.1239L92.9999 64.2094C92.9414 64.3188 92.89 64.433 92.8384 64.5475L92.8383 64.5477C92.8202 64.5878 92.8022 64.628 92.7837 64.668C92.7691 64.6998 92.7543 64.7315 92.7391 64.763C92.5115 65.3481 92.2458 65.9178 91.9438 66.4681C91.3075 67.4798 91.3076 68.1923 92.0647 69.1149C92.149 69.2351 92.2605 69.3338 92.3901 69.4029C92.5197 69.472 92.6637 69.5097 92.8105 69.5128C92.9574 69.5159 93.1029 69.4843 93.2353 69.4207C93.3677 69.3571 93.4832 69.2632 93.5726 69.1467C94.0496 68.5488 94.4757 67.9128 94.9019 67.2768L94.9023 67.2761C94.9755 67.1667 95.0447 67.0626 95.1105 66.9636L95.1157 66.9557L95.1185 66.9515C96.304 65.1678 96.3749 65.0611 98.3062 65.8192C98.5851 65.9233 98.883 65.9905 99.1833 66.0582C99.9105 66.2221 100.651 66.3892 101.169 67.0916C101.449 67.4734 101.965 67.4925 102.346 67.0026C102.654 66.5977 102.997 66.2208 103.371 65.8764C104.735 64.7627 105.8 63.3259 106.469 61.6963C106.773 60.8768 107.147 60.0816 107.454 59.4292C107.591 59.1396 107.714 58.8781 107.812 58.6551C108.079 57.1854 107.824 56.9245 106.864 57.1281C106.536 57.2632 106.191 57.351 105.839 57.389C105.559 57.3635 105.069 57.0899 105.069 56.899C104.999 56.0648 105.031 55.2251 105.165 54.3986C105.362 53.3425 106.196 52.808 106.978 53.1261C107.6 53.3913 108.198 53.7084 108.766 54.0741C109.46 54.5068 109.918 54.3605 110.14 53.5715C110.24 53.2035 110.364 52.8423 110.509 52.4899L110.672 52.1144L110.965 51.4383L110.966 51.4367L110.966 51.4366L110.966 51.4366L110.966 51.4365L110.966 51.4365L110.966 51.4364C111.691 49.7628 112.417 48.0872 113.169 46.4202C113.247 46.2629 113.42 46.1353 113.598 46.004L113.598 46.004C113.694 45.9334 113.79 45.8618 113.875 45.7839C113.916 45.8713 113.971 45.9647 114.028 46.0598L114.028 46.06C114.165 46.2901 114.308 46.5301 114.263 46.7192C114.062 47.5336 113.788 48.328 113.442 49.0924C112.17 51.841 110.897 54.5895 109.625 57.3635C109.241 58.2465 108.909 59.1515 108.632 60.0739C108.486 60.5129 108.302 61.111 108.989 61.3464C109.491 61.5118 109.988 61.0664 110.172 60.3984C110.235 60.154 110.329 59.9188 110.452 59.6985C110.745 59.2125 111.045 58.7356 111.344 58.2596C111.707 57.6824 112.069 57.1066 112.418 56.5173C113.194 55.16 113.954 53.7922 114.715 52.4247C115.277 51.4141 115.839 50.4036 116.407 49.3978C116.776 48.743 117.153 48.0917 117.531 47.44C118.045 46.5527 118.559 45.6646 119.054 44.7659C119.261 44.357 119.396 43.916 119.455 43.4616C119.531 42.9845 119.277 42.7363 118.768 42.8254C118.495 42.8732 118.222 42.9248 117.95 42.9764L117.949 42.9765L117.949 42.9765L117.949 42.9765L117.949 42.9765L117.949 42.9765L117.949 42.9765C117.352 43.0896 116.754 43.2029 116.146 43.2771C116.1 43.2842 116.054 43.2916 116.007 43.2991C115.336 43.4059 114.606 43.5222 114.238 42.749C113.843 41.9219 113.461 41.0885 113.118 40.2423C113.053 40.0382 112.919 39.8632 112.739 39.7471C112.559 39.631 112.344 39.5811 112.132 39.606C111.753 39.606 111.373 39.5895 110.993 39.5729H110.993H110.992H110.992H110.992H110.992H110.992C110.459 39.5497 109.927 39.5265 109.396 39.5488C109.095 39.5627 108.788 39.5495 108.481 39.5362C107.666 39.501 106.848 39.4656 106.113 39.9369C105.684 40.2123 105.255 40.4934 104.827 40.7745L104.827 40.7745L104.827 40.7746L104.827 40.7747L104.827 40.7747L104.827 40.7748L104.826 40.7753L104.826 40.7756L104.826 40.7757L104.825 40.7757L104.825 40.7758L104.825 40.7758L104.825 40.7759C104.245 41.1566 103.666 41.5371 103.084 41.9028C102.607 42.2417 102.102 42.5417 101.576 42.8C100.725 43.1683 100.028 43.8203 99.6041 44.645C99.3713 45.0774 99.1289 45.5067 98.8863 45.9364L98.8861 45.9366L98.886 45.9369L98.8859 45.9371L98.8857 45.9374L98.8856 45.9376C98.3394 46.9049 97.7922 47.8738 97.3518 48.8824C96.5161 50.7351 95.5145 52.5141 94.5135 54.2919ZM98.6323 17.0338C98.6761 17.123 98.7255 17.2237 98.7706 17.3376C98.8586 17.2474 98.9458 17.1717 99.023 17.1046L99.0232 17.1045L99.0233 17.1044L99.0234 17.1043C99.1695 16.9775 99.2799 16.8817 99.2924 16.7777C99.3054 16.669 99.2145 16.5455 99.1232 16.4214C99.0808 16.3638 99.0383 16.306 99.006 16.2496C98.9575 16.2837 98.9014 16.3174 98.8447 16.3514C98.7005 16.4377 98.5526 16.5263 98.5161 16.6314C98.4824 16.7283 98.5464 16.8587 98.6323 17.0338ZM111.409 67.6236C111.427 67.4842 111.409 67.3426 111.355 67.2125V67.2316C111.018 66.838 110.645 66.476 110.242 66.15L110.096 66.2391C109.72 66.2113 109.343 66.2392 108.976 66.3218C108.849 66.3825 108.738 66.4715 108.651 66.5817C108.564 66.692 108.503 66.8207 108.473 66.958C108.48 67.0849 108.517 67.2084 108.58 67.3188C108.643 67.4293 108.73 67.5235 108.836 67.5943C109.316 67.8743 109.832 68.0883 110.369 68.2305C110.524 68.2587 110.683 68.2535 110.836 68.2151C110.988 68.1767 111.131 68.106 111.254 68.0078C111.338 67.8953 111.391 67.7629 111.409 67.6236ZM114.745 61.0216C114.619 61.0084 114.492 61.0216 114.371 61.0601L114.39 61.0855C114.057 61.686 113.805 62.3278 113.64 62.9942C113.576 63.2106 113.983 63.6496 114.276 63.7832C114.893 64.0758 115.351 63.6305 115.695 62.6188C115.536 62.1103 115.338 61.6147 115.103 61.1364C114.993 61.0738 114.871 61.0347 114.745 61.0216ZM117.502 62.1646C117.374 62.2011 117.256 62.2673 117.158 62.358L117.164 62.3453C116.917 62.6567 116.704 62.9937 116.528 63.3505L116.617 63.4078C116.56 63.5287 116.515 63.6814 116.56 63.7768C116.6 63.8602 116.638 63.9584 116.678 64.0598L116.678 64.06L116.678 64.0601C116.789 64.3456 116.91 64.6561 117.107 64.7312C117.292 64.74 117.476 64.7028 117.642 64.6228C117.809 64.5428 117.953 64.4227 118.061 64.2731C118.301 63.8125 118.431 63.3032 118.443 62.7843C118.45 62.5743 118.138 62.2435 117.896 62.148C117.765 62.1224 117.63 62.1281 117.502 62.1646ZM100.189 85.9435C98.9393 86.717 97.8575 87.7339 97.0082 88.9338H96.9892C91.9464 96.3111 89.5266 105.168 90.1178 114.084C90.1872 115.267 90.4361 116.432 90.8558 117.539C92.0201 120.568 94.4633 121.274 96.9128 119.168C98.3128 117.933 99.5239 116.499 100.508 114.911C102.53 111.678 103.961 108.11 104.732 104.375C105.95 100.885 106.501 97.1962 106.355 93.502C106.284 91.4413 105.869 89.4069 105.127 87.4832C104.096 84.8937 102.505 84.4674 100.189 85.9435ZM68.1038 109.815L73.4483 85.2881L64.8717 83.4176L63.1666 91.2243L56.3206 89.7354C49.6974 88.2912 44.8428 90.6707 43.6849 95.9897C42.5969 100.965 46.0517 105.012 52.6368 106.443L68.1038 109.815ZM135.552 65.7301C135.077 65.6512 134.594 65.632 134.114 65.6728V65.6665C133.707 65.7555 133.096 66.0164 133.032 66.3027C132.985 66.5132 133.197 66.8165 133.4 67.1089C133.473 67.2144 133.546 67.3184 133.605 67.4161C133.663 67.501 133.748 67.5637 133.847 67.5943C134.071 67.6634 134.294 67.7337 134.518 67.804C135.302 68.0508 136.084 68.2968 136.881 68.485C137.045 68.5086 137.211 68.4919 137.366 68.4365C137.522 68.381 137.661 68.2885 137.772 68.1669C137.84 67.9953 137.866 67.8101 137.848 67.6266C137.83 67.4431 137.769 67.2663 137.67 67.1107C137.037 66.5509 136.37 66.0303 135.673 65.5519L135.552 65.7301ZM134.489 72.8288L134.63 73.0476C134.712 73.1745 134.795 73.3016 134.877 73.4286L134.947 73.4731H134.877C143.886 85.1245 149.254 99.1764 150.307 113.866C151.361 128.557 148.053 143.231 140.8 156.048C133.546 168.866 122.669 179.256 109.533 185.917C96.3973 192.577 81.5873 195.21 66.9608 193.486C52.3343 191.762 38.5424 185.757 27.3151 176.226C16.0878 166.694 7.92488 154.059 3.85023 139.906C-0.224421 125.753 -0.0294281 110.712 4.41082 96.6698C8.85107 82.6273 17.3389 70.2085 28.8096 60.971L29.1022 61.0473L28.7968 60.8374C27.1951 59.6246 25.4356 58.6357 23.5669 57.8979C23.6103 57.8121 23.6299 57.7162 23.6239 57.6202C23.6178 57.5242 23.5862 57.4315 23.5324 57.3518C23.4786 57.272 23.4045 57.2081 23.3177 57.1665C23.231 57.125 23.1347 57.1073 23.0388 57.1154C22.0412 57.1512 21.1599 56.8189 20.2822 56.488C19.9117 56.3483 19.5419 56.2088 19.1641 56.0974C18.0462 55.6752 16.8976 55.3392 15.7284 55.0921C14.8244 54.9608 14.181 54.4888 13.5372 54.0164L13.5371 54.0164L13.5371 54.0164L13.537 54.0163L13.537 54.0163L13.5369 54.0163L13.5369 54.0162C13.3697 53.8936 13.2025 53.7709 13.0308 53.6542C12.5152 53.209 12.0842 52.6745 11.7583 52.0764C11.7211 51.9823 11.7069 51.8806 11.7169 51.7799C11.7268 51.6792 11.7607 51.5824 11.8156 51.4974C11.9155 51.452 12.024 51.4285 12.1337 51.4285C12.2434 51.4285 12.3519 51.452 12.4518 51.4974C13.096 51.8525 13.6978 52.2794 14.246 52.7698C14.9352 53.4537 15.7815 53.7607 16.6379 54.0714L16.6385 54.0716C16.8017 54.1308 16.9653 54.1902 17.1282 54.2523C17.8591 54.6057 18.6138 54.9076 19.3868 55.1557C20.8762 55.5053 22.3876 55.7539 23.9105 55.9001C24.6458 55.8797 25.3708 55.7222 26.0483 55.4357C26.6782 55.2448 26.6718 54.6722 26.2137 54.036C25.4373 52.9882 24.3069 52.2579 23.0325 51.9809C22.9032 51.9453 22.7764 51.9048 22.6515 51.8649C21.9961 51.6555 21.3958 51.4638 20.7866 52.0891C20.7357 52.1718 20.6403 52.1718 20.5703 52.1718C18.5852 53.0561 18.2797 53.0116 16.6764 51.4846C15.6839 50.5303 14.6086 49.6268 13.1898 49.6268C12.6675 49.6278 12.1514 49.5145 11.6777 49.2946C11.2039 49.0748 10.7841 48.7538 10.4477 48.3543C9.78597 47.6926 9.8814 46.9737 10.2059 46.1466C10.5304 45.3195 10.893 44.5687 11.981 44.4415C13.069 44.3142 14.3987 45.803 14.176 46.9864C14.1047 47.2994 14.1325 47.6267 14.2556 47.9232C14.3788 48.2196 14.5911 48.4704 14.8631 48.6406C15.5397 49.1364 16.2644 49.5627 17.0264 49.9131C17.3908 50.0235 17.7823 50.0033 18.1334 49.8558C18.4536 49.7026 18.8102 49.6416 19.1631 49.6799C19.516 49.7181 19.8513 49.8539 20.1312 50.0722C20.2766 50.1489 20.4303 50.2086 20.5893 50.2503C21.1833 49.1874 20.6637 48.5043 20.1485 47.827L20.1484 47.8269L20.1484 47.8269C20.0345 47.6772 19.9208 47.5277 19.8195 47.3745C19.7336 47.2505 19.6445 47.1296 19.5555 47.0087C19.4664 46.8878 19.3773 46.7669 19.2914 46.6428L16.5492 42.7808C16.2959 42.4408 16.0447 42.0883 15.7897 41.7306L15.7896 41.7303C15.5962 41.459 15.4006 41.1847 15.2004 40.9103C14.7571 40.3112 14.3021 39.7223 13.8453 39.131C13.3513 38.4916 12.855 37.8494 12.3691 37.1883C12.1584 36.8866 11.963 36.5744 11.7837 36.253L12.0128 36.0685L13.3552 37.481C14.2029 38.3877 14.9866 39.3566 15.7717 40.3272C17.1021 41.972 18.4366 43.6218 20.0931 44.9823C20.6017 45.5222 20.9975 46.1581 21.2574 46.8528C21.5437 47.4318 21.9254 47.7881 22.5616 47.6227C22.8621 47.515 23.118 47.31 23.2886 47.0403C23.4592 46.7705 23.5348 46.4515 23.5033 46.1339C23.1033 44.9051 22.6076 43.7095 22.0208 42.5582C21.5502 41.6684 21.0073 40.8125 20.4634 39.9551L20.4634 39.9551C20.0662 39.3289 19.6684 38.7018 19.2978 38.0599C18.4491 36.597 17.6349 35.1167 16.8197 33.6345L16.8195 33.6342C16.5286 33.1053 16.2376 32.5762 15.9448 32.0475C15.2577 30.8132 14.5747 29.5598 13.896 28.2873C13.7676 28.0489 13.6385 27.8112 13.5096 27.5738L13.5091 27.5729C13.0634 26.7522 12.6195 25.9349 12.2101 25.1061C12.126 24.8018 12.0916 24.486 12.1082 24.1708C12.3731 24.3249 12.6133 24.518 12.8208 24.7434C13.2886 25.4594 13.7241 26.1753 14.1596 26.8912L14.16 26.8919L14.1601 26.892C14.305 27.1302 14.4499 27.3684 14.596 27.6065C16.1738 30.2024 17.7581 32.7961 19.3487 35.3877C19.6483 35.8786 19.9538 36.3606 20.2594 36.8427L20.2595 36.8427L20.2595 36.8428L20.2596 36.8429L20.2596 36.8429L20.2596 36.843L20.2597 36.8431C20.7264 37.5791 21.1932 38.3154 21.6391 39.0843L21.8729 39.4767C22.7879 41.0122 23.702 42.5462 24.5404 44.1233C24.6351 44.3689 24.818 44.5701 25.0534 44.6878C25.2888 44.8055 25.5597 44.8311 25.8129 44.7596C26.4525 44.5736 27.0477 44.2597 27.5626 43.837C27.7187 43.6815 27.8416 43.4958 27.9236 43.2913C28.0057 43.0867 28.0452 42.8676 28.0397 42.6473C27.9198 41.034 27.7207 39.4376 27.5224 37.8476L27.4862 37.5573C27.3826 36.7362 27.2674 35.9172 27.1522 35.0982L27.1522 35.0981L27.1522 35.0981L27.1522 35.0981L27.1522 35.098L27.1521 35.098L27.1521 35.0976C26.9843 33.905 26.8165 32.7124 26.6845 31.513C26.6145 30.5008 26.6018 29.4854 26.6463 28.4718C26.6733 28.3072 26.727 28.1482 26.8054 28.001H27.0281C27.0812 28.2055 27.1403 28.41 27.1994 28.6145C27.3242 29.0463 27.4489 29.478 27.518 29.9097C27.6911 31.0517 27.8506 32.1957 28.01 33.3398C28.2433 35.013 28.4765 36.6862 28.7523 38.3526C28.9147 39.3663 29.146 40.3676 29.3773 41.3689C29.5177 41.9765 29.6581 42.5841 29.783 43.1944C29.8848 43.6843 30.2093 43.7798 30.6165 43.8307C32.7097 44.1106 32.7988 43.6652 32.5252 42.2019C32.1475 40.2396 31.8832 38.2281 31.6274 36.2813L31.6274 36.2812L31.6274 36.2812L31.6274 36.2812C31.5514 35.7031 31.4762 35.1307 31.399 34.567C31.2305 33.3365 31.0715 32.1028 30.9126 30.8691L30.9125 30.8689L30.9125 30.8687L30.9125 30.8685L30.9125 30.8683L30.9125 30.8682L30.9123 30.8673C30.7533 29.6329 30.5942 28.3986 30.4256 27.1675C30.3586 26.6955 30.2689 26.2261 30.1791 25.7564L30.1791 25.7563C30.0729 25.2004 29.9665 24.6439 29.8975 24.0818C29.7328 22.6844 29.6137 21.2819 29.495 19.8834L29.495 19.8833L29.495 19.8832L29.495 19.8831L29.495 19.883L29.495 19.8829L29.4949 19.8827L29.4522 19.3799C29.4779 19.1781 29.5382 18.9823 29.6303 18.8009H29.9421C29.9942 19.0037 30.0501 19.206 30.106 19.4082L30.106 19.4084L30.1061 19.4085L30.1061 19.4087L30.1062 19.4089L30.1062 19.4091L30.1063 19.4092C30.2414 19.8981 30.3764 20.3866 30.4574 20.8814C31.0979 24.9237 31.7341 28.9681 32.3661 33.0146C32.5005 33.8947 32.632 34.7704 32.763 35.6432C33.0165 37.332 33.2683 39.0098 33.5368 40.6876C33.7658 42.1446 34.0268 43.6016 34.3131 45.0459C34.6248 46.6428 36.8962 47.5336 38.1686 46.5156C38.2975 46.3679 38.3937 46.1946 38.4507 46.0071C38.5078 45.8195 38.5244 45.6221 38.4995 45.4276C38.4283 44.7864 38.3078 44.15 38.187 43.5125C38.1137 43.1253 38.0403 42.7377 37.9778 42.3482C37.7623 40.9985 37.5633 39.6446 37.3641 38.29C37.3164 37.9652 37.2686 37.6404 37.2207 37.3156C37.1482 36.8398 37.0749 36.3644 37.0017 35.8892L37.0016 35.8886C36.7918 34.5277 36.5822 33.1684 36.3936 31.8057C36.26 30.8511 36.1398 29.8843 36.0191 28.9138C35.864 27.6658 35.7081 26.4117 35.5219 25.1697C35.3904 24.274 35.1823 23.3864 34.9746 22.5004L34.9746 22.5003L34.9746 22.5002C34.9211 22.2723 34.8677 22.0445 34.8156 21.8167C34.7506 21.5339 34.6755 21.2512 34.6004 20.9684C34.5066 20.6149 34.4127 20.2614 34.3385 19.908C34.3295 19.6932 34.3553 19.4783 34.4148 19.2717L34.663 19.2399C34.9055 19.8354 35.1178 20.4428 35.2992 21.0596C35.4333 21.6819 35.5724 22.3036 35.7116 22.9257L35.7116 22.9261L35.7117 22.9264L35.7118 22.9268L35.7119 22.9271L35.712 22.9275L35.712 22.9278C36.0153 24.2829 36.3189 25.6397 36.5717 27.0084C36.8146 28.3257 37.017 29.6484 37.2196 30.9717C37.3937 32.1093 37.5678 33.2472 37.7678 34.3825C37.9483 35.4012 38.162 36.3866 38.3802 37.3925C38.5313 38.0891 38.6846 38.7956 38.8304 39.5297C38.9899 40.333 39.138 41.1389 39.2859 41.9446L39.286 41.945L39.2861 41.9453L39.2861 41.9456L39.2862 41.9459L39.2862 41.9461L39.2863 41.9464L39.2864 41.9467C39.4688 42.9396 39.6511 43.932 39.8547 44.9186C40.0456 45.8412 40.3128 46.7446 40.58 47.6417C40.7164 48.101 40.8644 48.5558 41.0123 49.0102C41.2578 49.7643 41.5029 50.5172 41.6935 51.2874C41.8334 51.86 42.1643 52.1272 42.6287 52.0636C42.8553 52.0313 43.0636 51.7335 43.2458 51.4731C43.2785 51.4264 43.3103 51.3809 43.3413 51.3383C43.4189 51.176 43.4519 50.9959 43.4367 50.8166C43.4467 50.2274 43.4498 49.6382 43.4529 49.0492V49.0489V49.0487V49.0484V49.0481V49.0479V49.0476C43.4597 47.7609 43.4664 46.4751 43.5449 45.1922C43.6068 44.1354 43.7609 43.0848 43.9154 42.0317L43.9154 42.0316L43.9154 42.0313L43.9155 42.0312L43.9155 42.031L43.9155 42.0308L43.9155 42.0306L43.9156 42.0305C43.9833 41.5687 44.0511 41.1065 44.1112 40.6431H44.4738C44.5603 41.1225 44.6156 41.6071 44.6393 42.0937C44.6282 42.884 44.6017 43.6743 44.5752 44.4651L44.5752 44.4654V44.4654V44.4655V44.4656V44.4656V44.4657V44.4658C44.5405 45.502 44.5057 46.539 44.5057 47.5781C44.3942 49.2501 44.4069 50.928 44.5438 52.598C44.6375 53.9236 44.4931 55.2553 44.1175 56.53C43.7485 58.2797 44.8619 59.2786 46.4844 58.8014C46.6424 58.769 46.7915 58.7024 46.9212 58.6063C47.0508 58.5102 47.1578 58.3869 47.2348 58.245C47.3118 58.1032 47.3568 57.9462 47.3667 57.7852C47.3767 57.6241 47.3513 57.4628 47.2924 57.3126C46.8536 56.1456 46.8395 54.9375 46.8254 53.731V53.7309C46.8203 53.293 46.8152 52.8553 46.7897 52.4199C46.6983 50.8696 46.7088 49.312 46.7194 47.7554V47.7554V47.7553V47.7553V47.7552V47.7552V47.7552C46.7228 47.2548 46.7261 46.7546 46.7261 46.2547C46.7305 45.6522 46.785 45.0527 46.8394 44.454L46.8395 44.4535L46.8395 44.4529L46.8396 44.4523L46.8396 44.4518L46.8396 44.4512L46.8397 44.4507C46.8651 44.1717 46.8904 43.893 46.9106 43.6143L47.2097 43.538C47.3768 43.8319 47.5051 44.1463 47.5914 44.4733C47.7505 45.6058 47.8841 46.7446 47.9795 47.8835C48.1813 50.3378 48.3551 52.792 48.5288 55.2463L48.6158 56.4728V57.5416C48.6221 58.0697 48.7366 58.5088 49.4047 58.5088C49.5281 58.5226 49.6531 58.5087 49.7704 58.4681C49.8878 58.4275 49.9946 58.3611 50.083 58.2739C50.1715 58.1867 50.2393 58.0808 50.2815 57.964C50.3238 57.8473 50.3394 57.7225 50.3272 57.5989C50.1289 55.905 50.4623 54.2803 50.7955 52.657L50.7955 52.657C50.9967 51.6768 51.1977 50.6972 51.2816 49.7032C51.3363 48.4816 51.6213 47.2814 52.1215 46.1657C52.2085 46.0046 52.373 45.8823 52.5375 45.7599C52.6134 45.7034 52.6894 45.647 52.7577 45.5867C52.7951 45.6634 52.8421 45.7407 52.8894 45.8182C52.9949 45.9915 53.1012 46.166 53.1012 46.3375C53.0641 46.8595 52.9789 47.3771 52.8468 47.8835C52.7973 48.0987 52.728 48.31 52.6587 48.5208C52.5764 48.7713 52.4943 49.0213 52.4459 49.2769C52.3296 49.8801 52.2265 50.4859 52.1235 51.0914L52.1235 51.0916L52.1234 51.0917L52.1234 51.0919L52.1234 51.092L52.1234 51.0922L52.1233 51.0923C51.9504 52.1088 51.7777 53.1244 51.5425 54.125C51.356 55.1861 51.4237 56.2763 51.7397 57.3062C51.7552 57.4065 51.7904 57.5027 51.8434 57.5891C51.8964 57.6756 51.9661 57.7506 52.0484 57.8099C52.1308 57.8691 52.2241 57.9113 52.3229 57.9341C52.4218 57.9569 52.5241 57.9597 52.624 57.9425C53.1457 57.8725 53.2476 57.4971 53.1458 57.0263C52.9358 55.9938 52.9035 54.933 53.0503 53.8896C53.2687 52.607 53.6693 51.3622 54.2401 50.1931C54.4981 49.6104 54.6908 48.9998 54.8833 48.3894L54.8834 48.3894L54.8834 48.3893L54.8835 48.389C54.9664 48.1264 55.0492 47.8638 55.1372 47.6036C55.1561 47.5492 55.1654 47.486 55.1744 47.4242C55.1897 47.3196 55.2045 47.2189 55.2644 47.1709C55.5485 46.9589 55.8461 46.7655 56.1552 46.5919C56.1635 46.7037 56.1879 46.8235 56.2123 46.9431C56.2629 47.1912 56.3132 47.4382 56.2188 47.6099C55.3826 49.3246 54.7423 51.1281 54.3101 52.9862C54.1674 53.6854 54.1395 54.4031 54.2274 55.1112C54.2592 55.6266 54.6409 55.7538 55.1245 55.6711C55.4171 55.6197 55.7243 55.5796 56.0388 55.5386L56.039 55.5386C56.3467 55.4984 56.6613 55.4574 56.976 55.4039C57.0909 55.3847 57.2035 55.3397 57.3163 55.2945C57.4657 55.2348 57.6154 55.1749 57.7713 55.1749C58.1875 55.059 58.6275 55.059 59.0438 55.1749C59.4955 55.3975 60.0554 55.7347 59.9218 56.4473C59.8864 56.545 59.8754 56.6498 59.8899 56.7527C59.9577 56.9146 60.0149 57.1011 60.0722 57.288L60.0723 57.2881C60.2087 57.7327 60.3458 58.1797 60.628 58.3051C60.9262 58.3746 61.2357 58.3817 61.5368 58.3258C61.8379 58.27 62.1242 58.1525 62.3777 57.9807C62.6954 57.7309 63.0817 57.5837 63.4852 57.5587C63.8886 57.5337 64.2901 57.632 64.6363 57.8407C64.8087 57.9165 64.9967 57.9502 65.1847 57.9391C65.3728 57.9281 65.5555 57.8725 65.7179 57.7771C66.1159 57.3768 66.4295 56.9008 66.6404 56.3773C66.7041 56.2437 66.4178 55.8047 66.2523 55.7411C66.0869 55.6775 65.737 55.9002 65.578 56.091C65.1835 56.5682 64.7826 56.8036 64.2037 56.4155C64.077 56.3499 63.9674 56.2558 63.8832 56.1407C63.7991 56.0256 63.7428 55.8925 63.7187 55.7519C63.6947 55.6113 63.7036 55.4671 63.7447 55.3306C63.7857 55.194 63.8579 55.0688 63.9555 54.9649C64.0317 54.8868 64.088 54.7915 64.1197 54.6871C64.1514 54.5827 64.1575 54.4722 64.1376 54.3649C64.1176 54.2576 64.0722 54.1567 64.0051 54.0707C63.938 53.9846 63.8512 53.916 63.752 53.8705C63.2621 53.546 62.963 53.6733 62.8166 54.2587C62.7945 54.5385 62.7166 54.811 62.5876 55.0603C62.4031 55.2957 62.0023 55.6266 61.8432 55.563C61.6764 55.4946 61.5272 55.3892 61.4071 55.2547C61.2869 55.1202 61.1989 54.9602 61.1497 54.7867C61.097 54.1029 61.1572 53.4151 61.3278 52.7508C61.4615 52.2418 61.5314 51.7837 61.0542 51.4783C60.595 51.1844 60.2949 51.5446 60.0121 51.884L59.979 51.9236L59.9028 52.0156C59.3773 52.6502 58.8745 53.2572 58.2676 53.8642C58.1494 53.9408 58.0133 53.9853 57.8726 53.9931C57.732 54.0009 57.5918 53.9718 57.4659 53.9087L57.423 53.8723C57.1225 53.6176 56.7477 53.2999 57.1604 52.8144C57.9812 51.8218 58.7956 50.8611 59.6418 49.9131C60.2271 49.2387 60.8634 49.3214 61.4996 50.0531C61.776 50.3804 62.0828 50.6808 62.4158 50.9502C62.5057 51.0303 62.6114 51.0907 62.7261 51.1276C62.8407 51.1645 62.9618 51.1771 63.0815 51.1645C63.2013 51.1519 63.3172 51.1145 63.4216 51.0546C63.5261 50.9947 63.6169 50.9136 63.6883 50.8166C64.3245 50.2249 66.0678 50.0594 66.8695 50.5303C67.6711 51.0011 68.1102 50.8611 68.352 49.9831C68.5297 49.3257 68.6912 48.6645 68.8525 48.0041L68.8527 48.0032L68.8528 48.003L68.8528 48.0029L68.8528 48.0028L68.8528 48.0027L68.8529 48.0026L68.8529 48.0024C69.0552 47.1741 69.2572 46.3468 69.4908 45.5294C69.7067 44.7623 69.9623 44.0091 70.2193 43.2516L70.2194 43.2516L70.2194 43.2515L70.2194 43.2514L70.2194 43.2514L70.2195 43.2513L70.2195 43.2513C70.3867 42.7587 70.5545 42.2642 70.7124 41.7629C70.7638 41.6001 70.7985 41.431 70.8333 41.2618C70.876 41.0539 70.9187 40.8459 70.9924 40.6495C71.1501 40.2874 71.3285 39.9348 71.5268 39.5933L71.7558 39.676C71.7558 39.7292 71.763 39.7868 71.7701 39.8441C71.7842 39.9579 71.7982 40.0707 71.7558 40.1468C71.3553 40.8792 71.3458 41.6604 71.3364 42.4381C71.331 42.8834 71.3256 43.3275 71.2468 43.7607C71.0471 44.831 70.7953 45.8873 70.5431 46.9453L70.543 46.9453L70.543 46.9454L70.543 46.9455L70.543 46.9455L70.5429 46.9456L70.5429 46.9457L70.5429 46.9459C70.3453 47.7745 70.1476 48.6041 69.9743 49.4423C69.6435 51.0032 69.3615 52.5684 69.1282 54.1378C69.1041 54.5214 69.1595 54.906 69.2909 55.2672C69.4222 55.6285 69.6267 55.9588 69.8916 56.2374C70.6551 57.2744 70.547 57.7071 69.6308 58.6042C69.3512 58.8801 69.1231 59.2098 68.8947 59.5401C68.7386 59.7659 68.5823 59.9919 68.4092 60.2011C68.1364 60.5825 67.7956 60.9103 67.404 61.1682C66.7019 61.5284 65.9668 61.8203 65.2089 62.0399C65.0489 62.0861 64.8849 62.033 64.7125 61.9771C64.5764 61.933 64.4351 61.8872 64.2864 61.8872C64.2518 61.8872 64.2161 61.8869 64.1798 61.8866H64.1791C63.8612 61.8842 63.4898 61.8814 63.3129 62.0526C62.9439 62.4025 63.2684 62.7206 63.5802 62.9815C64.2928 63.5732 65.0498 64.114 65.9978 63.5732C66.5024 63.2853 66.9908 62.9687 67.4793 62.6519L67.4793 62.6519L67.4794 62.6518L67.4795 62.6518L67.4795 62.6518L67.4796 62.6517L67.4797 62.6517C67.9088 62.3734 68.3379 62.0951 68.7782 61.8363C69.1002 61.646 69.4356 61.48 69.7708 61.3141C70.1643 61.1193 70.5577 60.9247 70.9287 60.6911C71.2887 60.4944 71.5648 60.1732 71.705 59.7876C72.0238 58.2389 72.3002 56.6803 72.5763 55.1237L72.5763 55.1236L72.5764 55.1234L72.5764 55.1233L72.5764 55.1231L72.5765 55.1229L72.5767 55.1219L72.5767 55.1215L72.5768 55.121L72.5769 55.1206L72.5769 55.1202L72.577 55.1198L72.5771 55.1194C72.6864 54.5032 72.7956 53.8873 72.9074 53.2725C73.2059 52.0632 73.4185 50.8343 73.5436 49.595C73.586 48.1489 74.043 46.8438 74.5033 45.5294L74.5035 45.5286L74.5038 45.5278L74.5041 45.527L74.5044 45.5262L74.5046 45.5255L74.5052 45.5239C74.5971 45.2614 74.6892 44.9985 74.778 44.7341C74.8221 44.6508 74.8709 44.57 74.9243 44.4923H75.1597C75.2557 45.2369 75.2919 45.988 75.2679 46.7383C75.1969 47.493 75.0484 48.2416 74.9003 48.9882L74.9003 48.9884L74.9002 48.9885L74.9002 48.9887L74.9002 48.9888L74.9002 48.989L74.9001 48.9891C74.8361 49.3122 74.772 49.6349 74.7144 49.9577C74.6836 50.127 74.6516 50.2958 74.6198 50.4641L74.6197 50.4646L74.6196 50.465L74.6195 50.4655L74.6194 50.4659L74.6189 50.4685C74.5456 50.8553 74.4728 51.2399 74.4153 51.6246C74.2794 52.5548 74.1441 53.4845 74.0088 54.4137L74.0082 54.4178L74.0074 54.4236C73.6935 56.5799 73.38 58.7341 73.0602 60.8883C73.0283 61.025 73.024 61.1666 73.0475 61.305C73.071 61.4433 73.1219 61.5756 73.1972 61.6941C73.2724 61.8125 73.3705 61.9148 73.4857 61.9949C73.6009 62.0751 73.7309 62.1315 73.8681 62.1608C74.4153 62.288 74.638 61.8363 74.7716 61.3464C75.3061 59.4376 75.8468 57.5289 76.4067 55.6202C76.5894 54.9996 76.7909 54.3641 76.9887 53.74L76.9891 53.7388L76.9892 53.7383L76.9893 53.7379C77.1564 53.211 77.3208 52.6921 77.4693 52.1972C77.6315 51.6564 77.781 51.1108 77.9305 50.5653C78.0801 50.0197 78.2296 49.4741 78.3918 48.9333C78.5699 48.3289 78.799 47.7308 79.028 47.1391C79.0863 46.9867 79.1438 46.8337 79.2014 46.6807C79.42 46.099 79.6391 45.5159 79.9061 44.9568C80.1325 44.5766 80.3946 44.2187 80.6887 43.8879L81.0005 44.0152C80.966 44.1495 80.9325 44.2838 80.899 44.4181C80.8152 44.7546 80.7314 45.0911 80.6314 45.4276C80.488 45.9044 80.3428 46.3841 80.1971 46.8655C79.8645 47.9645 79.5292 49.0723 79.2062 50.174C78.9297 51.1096 78.6613 52.055 78.3936 52.9978L78.3932 52.9994L78.3929 53.0004C78.1312 53.9224 77.8701 54.8419 77.6029 55.7474C77.4347 56.3172 77.2623 56.8851 77.0899 57.4527L77.0898 57.453C76.7078 58.7108 76.3264 59.9669 75.9932 61.2382C75.8978 61.6009 76.0568 62.3262 76.2795 62.4089C76.4098 62.4523 76.5476 62.4681 76.6843 62.4551C76.821 62.4422 76.9534 62.4008 77.0732 62.3338C77.193 62.2667 77.2974 62.1754 77.3799 62.0656C77.4623 61.9558 77.521 61.8301 77.552 61.6963C77.9656 60.602 78.3536 59.5013 78.729 58.3942C78.9948 57.6016 79.2493 56.8107 79.504 56.019C79.9384 54.669 80.3735 53.3167 80.8668 51.9491C81.6494 49.7795 82.5274 47.6418 83.4117 45.5103C83.7888 44.699 84.2137 43.9108 84.6842 43.1499C84.7198 43.0867 84.8018 43.0505 84.9366 42.9911C85.0189 42.9547 85.121 42.9097 85.2441 42.8445C85.185 43.2939 85.1022 43.7399 84.996 44.1806C84.5336 45.7118 84.0544 47.2388 83.5581 48.7615C83.5098 48.9066 83.4226 49.033 83.3342 49.1613L83.3342 49.1613C83.2365 49.303 83.1373 49.4468 83.0873 49.6204C82.9918 49.9513 82.8837 50.4985 83.0428 50.6257C83.1974 50.7267 83.3739 50.7891 83.5577 50.808C83.7414 50.8268 83.927 50.8014 84.0989 50.7339C84.7734 50.3521 85.066 50.6193 85.4096 51.1411C85.7921 51.7667 86.2331 52.3547 86.7266 52.8971C86.8645 53.0284 87.0291 53.1282 87.2092 53.1897C87.3894 53.2512 87.5807 53.2729 87.7701 53.2534C88.3172 53.1452 88.8644 52.9226 88.9535 52.2227C88.9571 52.1885 88.9598 52.1525 88.9626 52.1159C88.9743 51.9612 88.9869 51.7948 89.0743 51.7073C89.3793 51.3453 89.7454 51.0396 90.156 50.8039C90.2641 50.7657 90.6967 51.1793 90.9003 51.4401C91.6065 52.3627 92.3701 52.4008 93.0699 51.4401C93.2438 51.1907 93.4723 50.9842 93.738 50.8365C94.0037 50.6888 94.2997 50.6036 94.6033 50.5875C95.3562 50.51 95.5937 49.9026 95.8187 49.327C95.8523 49.2411 95.8856 49.1559 95.9203 49.0733C96.0341 48.7047 96.1087 48.3251 96.1429 47.9408C96.2036 47.5798 96.1452 47.2089 95.9765 46.8841C95.8078 46.5592 95.5379 46.2981 95.2077 46.1402C94.8987 46.003 94.5498 45.9856 94.2288 46.0915C93.9077 46.1973 93.6375 46.4188 93.4708 46.7128C93.2292 46.9539 92.9498 47.1538 92.6436 47.3046C92.5083 47.0278 92.3956 46.7405 92.3065 46.4456C92.2933 46.2461 92.2256 46.054 92.1109 45.8903C91.9962 45.7265 91.8389 45.5973 91.6559 45.5166C91.473 45.4359 91.2715 45.4069 91.0732 45.4328C90.8749 45.4586 90.6875 45.5382 90.5313 45.663C90.2427 45.832 89.9968 46.065 89.8126 46.3441C89.6284 46.6232 89.5107 46.9409 89.4688 47.2727C89.4607 47.5772 89.3659 47.873 89.1952 48.1253C88.858 48.5007 88.3236 48.9015 87.9228 48.5006C87.6491 48.0663 87.5219 47.5556 87.5601 47.0437C87.5547 46.8404 87.7697 46.6147 87.9593 46.4156C87.9952 46.3779 88.0303 46.3411 88.0627 46.3056C88.2563 46.0808 88.4668 45.8774 88.6753 45.6759L88.6753 45.6759L88.6754 45.6759L88.6754 45.6758L88.6755 45.6758L88.6755 45.6757L88.6756 45.6757C88.8918 45.4667 89.1059 45.2598 89.297 45.0332C90.1432 44.0406 90.9704 43.2899 92.3828 44.1933C92.9936 44.5878 93.5917 44.3078 94.0498 43.608C94.3876 43.2551 94.8373 43.0303 95.3222 42.9717C95.5067 42.9399 95.8757 43.3726 96.0094 43.6652C96.1117 43.8857 96.2642 44.0793 96.4546 44.2303C96.6451 44.3814 96.8682 44.4859 97.1062 44.5353C97.3442 44.5848 97.5905 44.5779 97.8253 44.5152C98.0602 44.4525 98.2772 44.3357 98.4589 44.1742C98.6999 43.9486 98.8982 43.6814 99.0442 43.3853C99.118 43.286 99.1663 43.1702 99.185 43.0479C99.2036 42.9256 99.1921 42.8007 99.1513 42.6839C99.1105 42.5672 99.0416 42.4622 98.9509 42.3781C98.8601 42.2941 98.7502 42.2336 98.6307 42.2019C97.7206 41.8277 96.8029 41.4674 95.8846 41.1068L95.8844 41.1067L95.8841 41.1066L95.8838 41.1064L95.8835 41.1063L95.8833 41.1062L95.883 41.1061C93.8037 40.2896 91.7222 39.4722 89.7233 38.4926C88.1285 37.7163 86.9151 38.2856 85.6792 38.8654C85.426 38.9841 85.1718 39.1034 84.9133 39.2115C83.6755 39.7035 82.4576 40.2448 81.2394 40.7863L81.2386 40.7867L81.2383 40.7868L81.2381 40.7869L81.2379 40.787L81.2376 40.7871L81.2374 40.7872C80.5025 41.1139 79.7675 41.4406 79.028 41.7565C78.7794 41.8843 78.4942 41.9225 78.2207 41.8645C77.9472 41.8066 77.702 41.6561 77.5265 41.4384C76.3613 40.2142 75.1809 39.0052 74.0001 37.7958C72.8856 36.6543 71.7708 35.5124 70.6679 34.357C70.0826 33.7399 69.5226 33.3072 68.6128 33.6444C68.3425 33.7467 68.0533 33.8008 67.7645 33.8547C67.5503 33.8948 67.3363 33.9347 67.1304 33.9944C66.8635 34.0953 66.5695 34.0976 66.3011 34.0007C66.0328 33.9039 65.8078 33.7144 65.667 33.4663C65.1471 32.6721 64.6312 31.8739 64.1151 31.0754L64.1142 31.0741L64.1141 31.0739L64.1139 31.0737L64.1138 31.0734L64.1136 31.0732L64.1135 31.073L64.1133 31.0728C63.493 30.113 62.8723 29.1528 62.2441 28.1982C62.1175 27.9827 61.9194 27.8184 61.6842 27.7338C60.7107 27.5111 59.7436 27.3266 58.802 27.9628C58.6401 28.0277 58.4645 28.0512 58.2912 28.0312C58.1179 28.0112 57.9523 27.9483 57.8094 27.8483C57.3942 27.4494 57.0109 27.0203 56.6276 26.5911L56.6275 26.5911C56.2649 26.1851 55.9023 25.7792 55.5126 25.3987C55.1285 24.9781 54.6385 24.6683 54.0938 24.5017C53.2317 24.3076 52.3586 24.1581 51.4854 24.0086L51.4854 24.0086L51.4854 24.0086L51.4853 24.0086L51.4853 24.0086L51.4852 24.0086L51.4852 24.0086C50.612 23.8591 49.7387 23.7095 48.8766 23.5155C47.5978 23.2322 46.338 22.8971 45.0847 22.5638L45.0846 22.5637L45.0845 22.5637C44.4237 22.388 43.7648 22.2127 43.1059 22.0458C42.999 22.0261 42.8847 22.03 42.7706 22.0339C42.6266 22.0389 42.483 22.0438 42.3552 22.0012C42.0746 21.9331 41.8255 21.7715 41.6489 21.5431C41.6288 21.4147 41.6392 21.2834 41.6789 21.1597C41.7187 21.0359 41.7869 20.9232 41.878 20.8305C43.6149 19.1572 45.3582 17.4839 47.146 15.8615C47.7301 15.4068 48.3516 15.0024 49.0039 14.6527C50.7398 13.482 52.5902 12.4907 54.5265 11.6941C55.3293 11.3863 56.1164 11.0522 56.9024 10.7185L56.9025 10.7185L56.9026 10.7184C57.6114 10.4175 58.3194 10.1169 59.0374 9.8363C59.3144 9.73201 59.5948 9.68782 59.8844 9.64215C60.1603 9.59866 60.4445 9.55384 60.7425 9.45453C60.9903 9.37193 61.236 9.27781 61.4796 9.18449C61.8365 9.04779 62.1889 8.91282 62.5367 8.81829C62.8364 8.73686 63.1427 8.68378 63.4481 8.63087C63.7391 8.58043 64.0293 8.53015 64.3119 8.45563C66.9109 7.84963 69.5605 7.48545 72.2267 7.36768C74.5329 7.10053 76.8652 7.15836 79.1553 7.53948C79.2995 7.57341 79.4551 7.5621 79.6106 7.55079C79.6883 7.54514 79.7661 7.53948 79.8424 7.53948C80.6123 7.60947 81.3821 7.68578 82.152 7.78122C82.3685 7.80762 82.5847 7.8332 82.8008 7.85876C83.6258 7.95637 84.4477 8.05361 85.2696 8.19479C85.7986 8.28158 86.3196 8.40864 86.8412 8.53585C87.1226 8.60448 87.4042 8.67315 87.6873 8.73558C88.0998 8.871 88.527 8.95646 88.9598 8.99009C90.4231 8.95483 91.7344 9.46235 93.0491 9.97122L93.0497 9.97147C93.1582 10.0135 93.2667 10.0554 93.3753 10.0971C94.2215 10.3898 94.6351 10.2753 94.9914 9.4609C95.6581 8.01051 96.2422 6.52357 96.741 5.00721C97.0163 4.11967 97.1988 3.20294 97.3809 2.28786V2.28781C97.4807 1.78599 97.5805 1.28467 97.6954 0.788933C97.7993 0.510698 97.936 0.245854 98.1026 0C98.7056 0.398203 98.5813 0.796409 98.4527 1.20826L98.4526 1.20841L98.4526 1.20858L98.4525 1.20876L98.4525 1.20895C98.4373 1.2575 98.4221 1.30624 98.408 1.3552C98.2412 1.93418 98.0838 2.51694 97.9264 3.09985L97.9264 3.1001L97.9263 3.10038L97.9262 3.10068L97.9261 3.10103L97.926 3.10142L97.9259 3.10182C97.6753 4.02995 97.4246 4.95842 97.1355 5.87249C97.0285 6.2028 96.85 6.51756 96.6738 6.82829C96.4936 7.14603 96.3158 7.45956 96.2193 7.78122C96.0459 8.53237 95.9584 9.3008 95.9585 10.0717C95.933 10.7079 96.4229 10.8797 96.9446 11.0579C98.4461 11.5541 99.9222 12.0949 101.398 12.6357C101.749 12.7628 102.104 12.8863 102.459 13.01C103.455 13.3571 104.456 13.7057 105.394 14.1373C107.114 14.8823 108.786 15.7322 110.401 16.6823C112.113 17.7257 112.291 17.8275 113.258 16.1096C113.619 15.4693 113.878 14.7722 114.138 14.0731C114.304 13.6261 114.47 13.1782 114.664 12.7439C114.945 12.0972 115.288 11.4793 115.688 10.8988C115.774 10.7782 115.986 10.748 116.201 10.7174C116.303 10.7028 116.406 10.6881 116.496 10.6634C116.506 10.7587 116.529 10.8598 116.551 10.9605L116.551 10.9606C116.599 11.176 116.646 11.3897 116.573 11.5414C115.868 12.9142 115.131 14.2662 114.393 15.6176C114.218 15.9385 114.043 16.2593 113.869 16.5804C113.029 18.1138 113.283 18.7945 114.938 19.4308C115.176 19.5134 115.403 19.6268 115.612 19.768C116.429 20.3443 117.236 20.9276 118.045 21.5128C118.326 21.7157 118.607 21.9189 118.889 22.1221C119.677 22.6884 120.11 22.5929 120.619 21.7403C120.64 21.7043 120.658 21.6619 120.676 21.6195C120.711 21.5346 120.746 21.4498 120.81 21.4159C120.981 21.3421 121.161 21.2887 121.344 21.2568L121.349 21.2707C121.399 21.4332 121.457 21.6228 121.395 21.7403C121.269 21.9602 121.108 22.1579 120.918 22.3257C120.441 22.8156 120.505 23.1274 121.007 23.5473C122.21 24.5716 123.393 25.6151 124.551 26.6903C124.935 27.0333 125.279 27.4084 125.62 27.7797C125.924 28.1108 126.225 28.4391 126.549 28.739C126.95 29.1335 127.344 28.9872 127.643 28.5545C128.057 27.9437 128.451 27.3456 128.865 26.7094C128.975 26.5435 129.086 26.377 129.196 26.2105L129.198 26.2069C129.619 25.5701 130.04 24.9329 130.494 24.3235C130.572 24.2055 130.741 24.1475 130.909 24.0898C130.986 24.0635 131.062 24.0372 131.13 24.0054C131.13 24.1039 131.144 24.2074 131.157 24.31C131.184 24.5121 131.21 24.7102 131.13 24.8579C130.873 25.3528 130.601 25.784 130.299 26.2617C130.174 26.4597 130.044 26.6657 129.908 26.8876L129.75 27.1458L129.749 27.1464C129.337 27.8174 128.924 28.4902 128.54 29.178C128.432 29.3252 128.355 29.4934 128.314 29.672C128.274 29.8506 128.272 30.0356 128.307 30.2152C128.342 30.3948 128.415 30.565 128.52 30.7151C128.624 30.8652 128.759 30.9917 128.916 31.0867C129.024 31.1766 129.136 31.2649 129.25 31.3539C129.457 31.5168 129.668 31.6819 129.857 31.863C130.935 32.8833 130.541 33.9919 130.123 35.1701L130.118 35.1841C129.902 35.9106 129.797 36.6657 129.806 37.4237C129.804 37.526 129.829 37.6271 129.879 37.7163C129.929 37.8055 130.002 37.8795 130.091 37.9304C130.18 37.9813 130.28 38.0073 130.383 38.0054C130.485 38.0036 130.585 37.9741 130.672 37.92C131.049 37.7807 131.381 37.5409 131.632 37.2265C133.027 35.2485 134.402 33.2566 135.777 31.2636C136.486 30.2373 137.194 29.2106 137.906 28.1855C138.219 27.745 138.559 27.3045 138.899 26.8641C139.05 26.6683 139.201 26.4725 139.35 26.2768L139.655 26.4167C139.624 26.7844 139.536 27.145 139.395 27.4856C138.757 28.4934 138.099 29.4874 137.441 30.4814C137.002 31.1441 136.563 31.8069 136.131 32.4737C135.67 33.1554 135.226 33.851 134.785 34.5423C134.387 35.1674 133.991 35.7888 133.586 36.393C133.453 36.6211 133.27 36.8287 133.086 37.0376L133.085 37.0378L133.085 37.038L133.085 37.0381L133.085 37.0382L133.085 37.0382L133.085 37.0383C132.961 37.1789 132.837 37.32 132.727 37.4683C132.098 38.1856 131.689 39.0693 131.55 40.0132C131.528 40.2669 131.303 40.505 131.081 40.7407C130.985 40.8419 130.89 40.9426 130.812 41.0439C130.371 41.6221 129.924 42.1995 129.478 42.7772C128.598 43.916 127.718 45.0557 126.873 46.2038C126.556 46.6298 126.25 47.0685 125.945 47.5072L125.945 47.5073L125.945 47.5075L125.945 47.5076L125.945 47.5078L125.945 47.508L125.945 47.5081C125.639 47.9471 125.334 48.3862 125.016 48.8124C124.767 49.1496 124.392 49.5759 123.953 49.2578C123.514 48.9397 123.686 48.4943 123.953 48.1062L126.593 44.3715C126.759 44.1708 126.911 43.9581 127.045 43.7352C127.376 43.1371 127.102 42.4627 126.409 42.4627C125.321 42.4597 124.233 42.517 123.151 42.6345C122.643 42.6522 122.138 42.7226 121.644 42.8445C121.271 42.9448 120.943 43.1692 120.715 43.4807C119.378 45.8348 118.061 48.2207 116.789 50.6003C116.308 51.4648 115.837 52.3345 115.366 53.2024L115.366 53.2031L115.365 53.2033C114.783 54.2768 114.202 55.3476 113.608 56.4028C113.461 56.6702 113.275 56.9165 113.088 57.1639C112.92 57.3874 112.751 57.6118 112.609 57.8534C112.004 58.8714 111.4 59.8957 110.885 60.9583C110.754 61.3332 110.754 61.7413 110.885 62.1162C110.973 62.2126 111.083 62.2853 111.207 62.3276C111.33 62.3699 111.462 62.3803 111.591 62.358C112.03 62.102 112.41 61.7549 112.704 61.34C113.936 59.401 115.131 57.4412 116.327 55.4793L116.327 55.4786L116.328 55.4778L116.706 54.8567C117.214 54.0423 117.7 53.2098 118.181 52.3865L118.184 52.3813C118.341 52.113 118.497 51.8456 118.653 51.5801C118.892 51.2995 119.158 51.0437 119.448 50.8166C119.582 51.6247 119.419 52.4537 118.99 53.1516C118.931 53.2671 118.868 53.3831 118.804 53.5004L118.804 53.5009C118.642 53.7969 118.477 54.1007 118.354 54.4241C118.249 54.612 118.198 54.8261 118.21 55.0414C118.221 55.2567 118.293 55.4644 118.418 55.6403C118.542 55.8162 118.714 55.9532 118.914 56.0352C119.113 56.1173 119.332 56.141 119.544 56.1037C119.776 56.0869 120.008 56.043 120.239 55.999C120.533 55.9432 120.826 55.8874 121.122 55.8874C121.581 55.8274 122.049 55.8888 122.477 56.0656C123.368 56.5618 123.928 56.4473 124.488 55.5502C124.953 54.6816 125.521 53.8721 126.18 53.1389C128.379 51.02 130.278 48.6508 132.177 46.2815L132.177 46.2813L132.178 46.281L132.178 46.2808L132.178 46.2805L132.178 46.2803L132.178 46.2801C132.987 45.2706 133.797 44.261 134.629 43.2708C136.741 40.7258 138.854 38.1808 140.992 35.6359C141.24 35.3894 141.508 35.1638 141.793 34.9615L142.041 35.1014C141.897 35.5693 141.696 36.018 141.443 36.4375C140.956 37.0503 140.445 37.6441 139.935 38.2377L139.934 38.2379C139.464 38.7846 138.993 39.3311 138.542 39.8923C137.688 40.9504 136.843 42.0167 135.999 43.083L135.998 43.084L135.998 43.0845C135.025 44.3131 134.052 45.5416 133.064 46.7574C132.379 47.605 131.672 48.4342 130.965 49.2623L130.965 49.2624L130.965 49.2625L130.965 49.2626L130.965 49.2627L130.965 49.2629L130.965 49.263L130.964 49.2634L130.964 49.2636L130.964 49.2637L130.964 49.2638L130.964 49.264L130.964 49.2641C130.43 49.8899 129.897 50.5151 129.374 51.1474C128.628 52.0517 127.892 52.9631 127.157 53.874L127.155 53.8755L127.155 53.8766C126.499 54.689 125.843 55.501 125.181 56.3073C124.681 56.8135 124.21 57.3466 123.769 57.9043C123.416 58.4636 123.162 59.079 123.018 59.724L122.999 59.8027L122.982 59.8764L122.982 59.8782C122.818 60.5881 122.65 61.3146 121.968 61.7536C121.332 62.1417 120.956 61.9635 120.696 61.3273C120.666 61.2518 120.636 61.1763 120.607 61.1009L120.605 61.0979L120.604 61.0948C120.458 60.7209 120.312 60.3485 120.148 59.9848C119.992 59.5717 119.689 59.2306 119.297 59.0265C118.905 58.8223 118.452 58.7694 118.023 58.8777C117.647 58.9222 117.267 58.9222 116.891 58.8777C116.21 58.8078 115.714 59.1005 115.676 59.6285C115.676 59.9272 115.794 60.2136 116.005 60.4248C116.217 60.636 116.503 60.7547 116.802 60.7547C117.176 60.7417 117.544 60.6461 117.877 60.4747C118.297 60.2393 118.691 60.3666 118.933 60.6719C119.059 60.8305 119.194 60.9925 119.332 61.1561L119.332 61.1564C119.459 61.3078 119.587 61.4607 119.709 61.6136C119.822 61.7095 119.914 61.8273 119.979 61.9599C120.045 62.0925 120.082 62.2371 120.09 62.3848C120.098 62.5324 120.075 62.6801 120.024 62.8188C119.973 62.9575 119.894 63.0843 119.792 63.1915C119.528 63.5672 119.314 63.9757 119.156 64.4067L118.392 66.0291C118.372 66.0738 118.344 66.1261 118.316 66.1803L118.316 66.1807L118.316 66.1808C118.232 66.3425 118.139 66.5207 118.182 66.5635C118.715 67.1796 119.315 67.7345 119.97 68.2178C120.307 68.4468 120.645 68.0905 120.606 67.5816C120.511 66.4045 120.606 66.3345 121.783 66.4045C122.859 66.4745 123.228 66.1373 123.228 65.0748C123.204 64.8614 123.254 64.6464 123.37 64.4656C123.486 64.2849 123.66 64.1495 123.864 64.0822C124.467 63.8052 125.055 63.4973 125.626 63.1597C126.428 62.6698 126.453 62.4534 125.951 61.69C125.883 61.5847 125.819 61.4795 125.75 61.3675L125.749 61.3658L125.749 61.3654C125.69 61.2681 125.627 61.1657 125.556 61.0537C125.676 60.9408 125.792 60.822 125.909 60.7028L125.909 60.7027L125.909 60.7026L125.909 60.7025C126.003 60.6068 126.096 60.5109 126.193 60.4175C126.606 60.023 126.982 59.9276 127.376 60.4874C127.431 60.5915 127.511 60.6803 127.609 60.7458C127.707 60.8113 127.82 60.8515 127.937 60.8629C128.054 60.8742 128.172 60.8563 128.281 60.8108C128.39 60.7653 128.485 60.6935 128.559 60.602C129.052 60.0912 129.51 59.5674 129.974 59.0358L129.975 59.0356L129.975 59.0355L129.975 59.0353L129.975 59.0352L129.975 59.035L129.975 59.0348L129.976 59.0342C130.309 58.6525 130.647 58.2668 131.003 57.8789C131.426 57.4173 131.845 56.9447 132.265 56.4712L132.265 56.4707L132.265 56.4706L132.266 56.4705L132.266 56.4704L132.266 56.4702C132.69 55.9913 133.116 55.5114 133.548 55.0412C133.634 54.9674 133.737 54.9156 133.848 54.8901C133.959 54.8647 134.074 54.8663 134.184 54.8949C134.147 54.9462 134.11 54.9976 134.074 55.0488L134.068 55.0565C133.898 55.2949 133.729 55.5318 133.548 55.7602L128.369 62.0017L127.994 62.4496L127.993 62.4506L127.993 62.4514C127.309 63.269 126.623 64.0887 125.951 64.922C125.684 65.2529 125.989 66.3345 126.46 66.7863C126.529 66.8721 126.616 66.9423 126.714 66.992C126.812 67.0418 126.92 67.07 127.031 67.0749C127.141 67.0797 127.251 67.061 127.353 67.02C127.455 66.979 127.548 66.9166 127.624 66.8371C128.553 65.962 129.686 65.558 130.816 65.155C131.025 65.0804 131.234 65.0059 131.442 64.9284C133.275 64.2457 135.272 64.1391 137.168 64.623C138.478 64.8945 139.634 65.6571 140.4 66.7544C140.688 67.0898 140.832 67.5258 140.8 67.9669C140.768 68.4081 140.562 68.8185 140.228 69.1085C139.477 69.9102 137.257 70.3492 136.296 69.9102C135.109 69.2852 133.883 68.7369 132.625 68.2687C131.687 68.0768 130.725 68.0382 129.775 68.1541C129.577 68.1669 129.285 68.5931 129.247 68.8604C129.256 69.001 129.3 69.1371 129.374 69.2568C129.449 69.3766 129.551 69.4764 129.673 69.5475C130.316 69.9119 131.005 70.188 131.722 70.3683C132.161 70.4516 132.578 70.6267 132.945 70.8822C133.313 71.1376 133.622 71.4676 133.853 71.8507C134.066 72.1737 134.276 72.4992 134.487 72.8257L134.487 72.8267L134.489 72.8288ZM56.098 101.64C53.5021 101.073 52.3823 99.7117 52.8213 97.6694C53.273 95.5953 54.9018 94.8318 57.4977 95.398L62.0532 96.3906L60.6852 102.645L56.098 101.64ZM57.3195 35.146C57.4531 34.427 57.8858 33.9816 58.3821 34.1598C58.9628 34.3747 58.9181 34.897 58.8768 35.3784L58.8768 35.3788L58.8768 35.379L58.8767 35.3791L58.8767 35.3792L58.8767 35.3794C58.8728 35.425 58.8689 35.4704 58.8656 35.515C58.8147 36.1512 58.3375 36.3103 57.8285 36.2594C57.1223 36.183 57.1923 35.6231 57.3195 35.146ZM60.4244 37.2137C60.5873 37.2859 60.7337 37.3906 60.8548 37.5213C60.9759 37.652 61.069 37.806 61.1286 37.9739C61.1881 38.1419 61.2129 38.3202 61.2012 38.498C61.1895 38.6757 61.1416 38.8493 61.0606 39.0079C61.2466 39.4632 61.4591 39.9072 61.6969 40.3377C61.7541 40.4331 62.2058 40.4268 62.3331 40.3059C62.6307 40.0353 62.884 39.7197 63.0839 39.3706C63.2118 39.1416 63.4177 38.9662 63.6641 38.8763C63.9105 38.7863 64.181 38.7879 64.4264 38.8807C64.9361 39.2185 64.687 39.6037 64.4516 39.9677L64.4264 40.0069C64.3565 40.1275 64.2819 40.2466 64.2072 40.3657L64.2071 40.3659L64.2071 40.366L64.207 40.3662L64.2069 40.3663L64.2068 40.3665L64.2067 40.3666L64.2066 40.3668L64.2065 40.3669C64.1319 40.486 64.0573 40.6051 63.9874 40.7258L63.9774 40.7422C63.3511 41.7694 63.3452 41.779 62.225 41.2284C61.8242 41.0248 61.5887 41.1457 61.4869 41.5593C61.4618 41.6682 61.4587 41.7808 61.4557 41.8933C61.4517 42.0371 61.4478 42.1808 61.3978 42.3164C61.3736 42.3821 61.3522 42.4591 61.3301 42.5388C61.2708 42.7524 61.206 42.9855 61.067 43.0735C60.9199 43.1274 60.7629 43.1484 60.6068 43.1352C60.4508 43.1221 60.2995 43.0749 60.1636 42.9972C59.829 42.7991 59.5597 42.5073 59.389 42.158C59.2183 41.8086 59.1536 41.4169 59.2028 41.0312C59.2689 40.642 59.2459 40.243 59.1357 39.8639C59.0256 39.4849 58.831 39.1357 58.5666 38.8425C58.2167 38.3844 57.8604 37.9136 58.3948 37.3601C58.6388 37.1044 58.9687 36.948 59.3211 36.9209C59.6735 36.8939 60.0234 36.9982 60.3035 37.2137H60.4244ZM52.0324 35.0378C52.2836 34.9324 52.528 34.8112 52.7641 34.6751C52.9166 34.6125 53.0727 34.558 53.2283 34.5037C53.436 34.4311 53.6428 34.3589 53.8393 34.2679C53.9016 34.2391 53.9622 34.2126 54.0205 34.1871L54.0206 34.187C54.2835 34.0719 54.4975 33.9782 54.5965 33.7908C54.6728 33.5124 54.6361 33.2151 54.4943 32.9637C54.3525 32.7122 54.117 32.527 53.8393 32.4483C53.6908 32.4122 53.5431 32.3727 53.3953 32.3331C53.0998 32.2539 52.8043 32.1747 52.5032 32.1238C52.3959 32.0958 52.284 32.0904 52.1744 32.108C52.0649 32.1255 51.9602 32.1656 51.867 32.2256C51.6599 32.4704 51.4339 32.7105 51.2071 32.9515C50.5909 33.6064 49.9688 34.2675 49.7037 35.0442C49.2743 36.4231 48.7404 37.7674 48.1068 39.0652C47.6932 39.8605 47.9795 40.3377 48.8321 40.5795C49.0873 40.6512 49.3555 40.6645 49.6166 40.6182C49.8777 40.5719 50.1249 40.4673 50.34 40.3122C50.7753 40.025 51.2884 39.8784 51.8097 39.8923C53.4321 40.0705 53.4893 40.0641 53.3494 38.4735C53.3334 38.398 53.3334 38.32 53.3494 38.2444C53.4639 37.9263 53.5912 37.6082 53.7121 37.3092C54.0484 37.4409 54.3602 37.628 54.6346 37.8627C54.9954 38.325 55.3027 38.8266 55.5508 39.3579C55.7735 39.7969 55.8307 40.2741 55.2136 40.465C54.0047 40.8403 53.413 41.8329 52.8341 42.819C52.7717 42.932 52.7389 43.059 52.7389 43.1881C52.7389 43.3171 52.7717 43.4441 52.8341 43.5571C52.9534 43.6294 53.0877 43.6734 53.2267 43.6855C53.3657 43.6976 53.5057 43.6777 53.6357 43.6271C54.2062 43.3412 54.7548 43.0137 55.2772 42.6473C56.3843 41.9092 57.2177 42.1319 57.8222 43.3344C57.9709 43.7187 58.2441 44.0422 58.5981 44.2532C58.9521 44.4642 59.3666 44.5507 59.7755 44.4987C60.1533 44.5342 60.5265 44.6088 60.8889 44.7214C61.6502 44.8791 62.4279 44.9432 63.2047 44.9123C63.9667 44.7284 64.7134 44.4859 65.438 44.187C66.1824 43.977 66.5768 44.2315 66.7104 44.9886C66.7995 45.4934 66.8377 45.9472 66.8758 46.401C66.8949 46.628 66.914 46.8549 66.9395 47.0882H67.0731C67.1421 46.7905 67.2151 46.4933 67.288 46.196L67.288 46.1959L67.2881 46.1957L67.2881 46.1956L67.2881 46.1954L67.2881 46.1953C67.4912 45.3682 67.6942 44.541 67.8112 43.7034C67.7924 43.4949 67.725 43.2937 67.6146 43.1158C67.5041 42.9379 67.3535 42.7884 67.175 42.6791C66.3415 42.2337 66.1442 41.9028 66.4941 41.0376C66.5641 40.8722 66.6471 40.7126 66.7423 40.5604C66.9275 40.2825 67.022 39.954 67.0129 39.6202C67.0038 39.2864 66.8915 38.9636 66.6914 38.6962C66.5042 38.4054 66.2946 38.1296 66.0847 37.8536C65.6242 37.2477 65.1627 36.6406 64.9354 35.8713C64.8409 35.5689 64.3096 35.3476 63.9286 35.1888L63.9173 35.1841C63.4733 34.9931 63.019 34.8248 62.5651 34.6566L62.565 34.6566L62.5649 34.6565L62.5648 34.6565L62.5648 34.6565L62.5647 34.6564C61.9455 34.4271 61.3271 34.1979 60.7361 33.9116C60.2731 33.6017 59.9157 33.1577 59.7118 32.6392C59.5382 32.1697 59.2519 31.75 58.878 31.4172C58.5041 31.0844 58.0541 30.8485 57.5677 30.7304C57.4478 30.6818 57.318 30.6631 57.1893 30.676C57.0606 30.6889 56.937 30.733 56.8292 30.8045C56.7214 30.8759 56.6327 30.9725 56.5707 31.086C56.5087 31.1995 56.4752 31.3265 56.4733 31.4558C56.257 32.531 56.0343 33.6126 55.7289 34.637C55.4744 35.5341 55.1818 36.5457 54.0238 36.6157C53.3139 36.6637 52.6008 36.6124 51.9052 36.463C51.755 36.3915 51.623 36.2868 51.5194 36.1567C51.4158 36.0266 51.3431 35.8746 51.3071 35.7122C51.1989 35.2478 51.5997 35.076 52.0005 34.9678L52.0324 35.0378ZM154.741 66.6082C154.879 67.009 155.081 67.3849 155.339 67.7216V67.6962L156.319 67.0599L155.447 65.9719C155.363 66.047 155.256 66.1256 155.15 66.203C154.942 66.3553 154.741 66.5027 154.741 66.6082ZM149.193 73.2378C150.338 71.8126 151.477 70.3875 152.565 68.9241H152.495C152.598 68.7768 152.665 68.6074 152.69 68.4294C152.716 68.2514 152.699 68.07 152.641 67.8998C152.378 67.6161 152.016 67.4433 151.63 67.4162C151.471 67.393 151.301 67.4755 151.128 67.5595C151.015 67.6138 150.902 67.6687 150.79 67.6962C150.59 67.7451 150.383 67.7722 150.178 67.7993L150.176 67.7995L150.176 67.7995C150.088 67.8111 149.999 67.8228 149.912 67.8361C149.849 67.4834 149.836 67.1236 149.874 66.7672C150.032 66.2664 150.225 65.7774 150.452 65.3039L150.351 65.2593C150.44 64.9664 150.487 64.6622 150.491 64.3559C150.48 64.2157 150.439 64.0793 150.372 63.9555C150.306 63.8317 150.214 63.7232 150.103 63.6369C149.531 63.3769 148.881 63.3475 148.288 63.555C147.696 63.7624 147.206 64.1906 146.921 64.7504C146.778 65.0324 146.626 65.3122 146.474 65.5926C146.179 66.1344 145.884 66.6784 145.649 67.2444C145.471 67.5988 145.378 67.9899 145.378 68.3865C145.378 68.783 145.471 69.1741 145.649 69.5285C146.111 70.3896 146.517 71.281 146.924 72.1764L146.924 72.1771C147.044 72.4394 147.163 72.702 147.284 72.9642C147.761 73.9313 148.557 74.0649 149.193 73.2378ZM150.133 74.9983C150.286 75.2325 150.52 75.4028 150.79 75.4774L150.815 75.4901C150.946 75.5098 151.08 75.5031 151.208 75.4703C151.336 75.4376 151.457 75.3795 151.562 75.2994C151.668 75.2194 151.757 75.119 151.823 75.0042C151.889 74.8895 151.931 74.7626 151.948 74.6312C151.948 74.1222 151.763 73.4859 151.311 73.4859C150.996 73.4859 150.68 73.7098 150.364 73.9336C150.228 74.03 150.092 74.1264 149.956 74.2049C149.917 74.4821 149.98 74.7641 150.133 74.9983ZM154.435 62.8162C154.892 63.4197 155.526 63.8648 156.249 64.0886L156.28 64.0632C156.437 64.0906 156.585 64.15 156.717 64.2378C156.849 64.3255 156.961 64.4397 157.047 64.573C157.132 64.7064 157.189 64.856 157.214 65.0124C157.239 65.1689 157.231 65.3288 157.19 65.482C157.135 66.1766 157.057 66.8739 156.979 67.5704C156.94 67.9138 156.902 68.2571 156.866 68.5996C156.809 70.3175 155.918 71.59 154.957 72.8624C154.312 73.7285 153.719 74.631 153.126 75.5313L153.126 75.5315C152.935 75.8216 152.744 76.1115 152.552 76.3999C152.488 76.5428 152.394 76.6699 152.275 76.772C152.157 76.8742 152.017 76.9489 151.866 76.9908C151.716 77.0328 151.558 77.0409 151.403 77.0147C151.249 76.9884 151.103 76.9284 150.974 76.8389C149.727 76.2091 148.493 75.5601 147.297 74.8475C146.92 74.58 146.623 74.2148 146.438 73.7913C145.598 72.082 144.792 70.3514 144.02 68.5996C143.901 68.2524 143.917 67.8732 144.065 67.5371C144.436 66.6986 144.83 65.8686 145.224 65.0383L145.224 65.038L145.224 65.0377L145.224 65.0374L145.224 65.0371C145.592 64.2613 145.96 63.4852 146.311 62.7016C146.411 62.4513 146.588 62.2394 146.817 62.0965C147.046 61.9535 147.314 61.8869 147.583 61.9063C148.697 61.8741 149.804 61.7357 150.892 61.4928C152.781 61.0284 153.328 61.251 154.435 62.8162ZM153.055 44.0152C152.759 44.8802 152.039 44.7493 151.345 44.6231C151.278 44.611 151.212 44.599 151.146 44.5878C150.944 44.5677 150.744 44.5316 150.548 44.4797C149.829 44.2252 149.676 43.7289 150.166 43.1436C150.293 42.9861 150.454 42.8581 150.616 42.7299C150.755 42.6198 150.895 42.5094 151.012 42.3801C151.467 41.9569 151.861 41.4731 152.183 40.9422C152.298 40.7125 152.483 40.5262 152.713 40.4115C152.943 40.2967 153.203 40.2597 153.456 40.3059C153.583 40.3059 153.856 40.7258 153.818 40.904C153.627 41.9526 153.368 42.9876 153.042 44.0025L153.055 44.0152ZM157.595 42.7759L157.595 42.7736L157.595 42.7727L157.595 42.7719L157.595 42.7711C157.536 41.7896 157.478 40.8072 157.438 39.8224C157.433 39.6691 157.43 39.5153 157.426 39.3617C157.403 38.298 157.381 37.2405 156.586 36.3676C156.293 36.0431 156.02 35.7314 155.759 35.3623C155.269 34.7261 155.192 34.7706 154.671 35.4005C154.023 36.1881 153.321 36.9278 152.616 37.6698L152.616 37.6699L152.616 37.6701L152.614 37.672L152.613 37.6732C152.357 37.9431 152.1 38.2133 151.846 38.4863C150.82 39.4973 149.845 40.559 148.926 41.6675C148.513 42.3031 147.992 42.8609 147.386 43.3153C147.103 43.4357 146.866 43.6432 146.709 43.9075C146.553 44.1718 146.484 44.4792 146.514 44.7851C146.831 44.8418 147.147 44.8937 147.462 44.9454C148.172 45.0619 148.876 45.1775 149.568 45.345C150.551 45.5833 151.523 45.8547 152.496 46.1265L152.496 46.1266C153.004 46.2683 153.512 46.4101 154.022 46.5475C154.957 46.7956 155.892 47.0437 156.834 47.2537C157.47 47.3937 157.776 47.0755 157.782 46.4774C157.788 45.9274 157.751 45.3127 157.715 44.7226L157.706 44.5687L157.699 44.6006C157.668 43.994 157.632 43.3874 157.595 42.7805L157.595 42.7782L157.595 42.7759ZM29.8911 10.11C29.7491 10.3795 29.63 10.6604 29.5349 10.9498L29.5858 10.9562L29.4458 11.0516C29.4987 11.179 29.5414 11.3202 29.5842 11.462L29.5842 11.462C29.6803 11.7805 29.7772 12.1014 29.993 12.2731C30.6878 12.7834 31.4241 13.2347 32.1943 13.622C32.557 13.8383 32.8306 13.6983 32.8306 13.2339C32.8424 13.0315 32.8076 12.829 32.7288 12.6422L32.591 12.3796C32.1794 11.5947 31.7673 10.8089 31.3036 10.059C31.1326 9.76888 30.8534 9.5584 30.5274 9.47371C30.3238 9.47371 30.0566 9.85546 29.8911 10.11ZM33.575 8.4112C33.2187 8.00401 32.8306 8.08672 32.4425 8.4112L32.4043 8.37936C31.8381 8.83745 31.8763 9.40373 32.4043 10.04C32.7647 10.5265 33.092 11.0366 33.3841 11.5669C33.5798 11.8606 33.7621 12.1616 33.9432 12.4608C34.1742 12.8423 34.4034 13.2209 34.6566 13.5775C34.7381 13.6628 34.8373 13.7292 34.9472 13.7721C35.0571 13.8149 35.1751 13.8332 35.2928 13.8256C35.3953 13.8128 35.4806 13.6767 35.5757 13.5251C35.6222 13.4509 35.6711 13.3729 35.7255 13.3039C35.6741 12.95 35.5932 12.6009 35.4837 12.2605C35.0956 11.2425 34.6693 10.2944 34.2112 9.33372C34.0354 9.00273 33.8219 8.69319 33.575 8.4112ZM33.3843 16.0902L33.3841 16.0901C32.9955 15.8827 32.6085 15.6761 32.2134 15.4735L32.258 15.5053C31.9429 15.343 31.6267 15.1822 31.3102 15.0214L31.3101 15.0214L31.3095 15.0211C30.3609 14.539 29.4104 14.056 28.4851 13.5266C28.3616 13.4153 28.2679 13.275 28.2123 13.1184C28.1568 12.9617 28.1412 12.7937 28.1669 12.6295C28.595 11.1437 29.0983 9.68053 29.6748 8.24577C29.799 8.03425 29.9683 7.85272 30.1707 7.71415C30.373 7.57557 30.6034 7.48338 30.8455 7.4441C31.951 7.37124 33.0595 7.35424 34.1667 7.39319C34.2069 7.43163 34.2629 7.47438 34.3258 7.52238L34.3259 7.52244L34.326 7.52248C34.4921 7.64925 34.7061 7.81257 34.803 8.02943C35.7828 10.2372 36.7244 12.4641 37.6597 14.6909C38.0287 15.5244 38.3595 16.3706 38.6649 17.2359C38.7349 17.5158 38.8049 18.0057 38.6649 18.1202C38.5255 18.2242 38.3642 18.2949 38.1933 18.3269C38.0223 18.3589 37.8463 18.3513 37.6787 18.3047C36.6764 17.8272 35.6917 17.3075 34.7063 16.7875L34.7056 16.7871C34.3651 16.6074 34.0246 16.4277 33.6832 16.2497L33.3843 16.0902ZM144.911 54.0742C145.182 53.8289 145.504 53.6451 145.853 53.5353C146.202 53.4255 146.571 53.3923 146.934 53.438C146.977 53.4621 147.035 53.4857 147.099 53.5117C147.271 53.582 147.487 53.67 147.57 53.8324C147.654 53.9775 147.707 54.1383 147.725 54.3047C147.744 54.4711 147.728 54.6396 147.678 54.7995C147.418 55.3531 145.28 55.5821 144.873 55.1177C144.791 55.0547 144.725 54.9737 144.679 54.8811C144.633 54.7884 144.61 54.6865 144.61 54.5832C144.61 54.4799 144.633 54.3781 144.679 54.2854C144.725 54.1927 144.791 54.1118 144.873 54.0488L144.911 54.0742ZM138.682 56.8801C138.61 57.0879 138.553 57.3005 138.51 57.5163C138.746 57.5572 138.984 57.5764 139.223 57.5735C139.776 57.5036 140.33 57.4145 140.877 57.3063C141.338 57.2126 141.798 57.1087 142.256 57.0051C142.607 56.9257 142.957 56.8464 143.308 56.7719C143.596 56.6922 143.893 56.6432 144.192 56.6256C144.504 56.6256 144.816 56.6356 145.127 56.6457C146.323 56.6843 147.514 56.7228 148.69 56.1929C149.296 55.8772 149.77 55.3562 150.026 54.7232C150.306 53.3171 149.988 52.8526 148.62 52.6109C148.472 52.5836 148.323 52.5549 148.175 52.5263L148.175 52.5262C147.769 52.4479 147.363 52.3694 146.953 52.3182C146.608 52.2343 146.245 52.252 145.91 52.3691C145.448 52.6442 144.934 52.8141 144.421 52.9837C143.604 53.2535 142.789 53.5228 142.188 54.2142C142.115 54.2895 142.018 54.3368 141.914 54.3478C140.279 54.5005 139.312 55.4994 138.682 56.8928V56.8801ZM46.2665 36.3992C46.1861 36.4557 46.1061 36.5119 46.039 36.5711L46.0453 36.5521C45.9326 36.2708 45.8743 35.9707 45.8735 35.6677C46.2525 33.9721 46.6537 32.2839 47.0546 30.5975C47.1786 30.0754 47.3027 29.5536 47.426 29.0317H47.3688C47.4708 28.2426 47.6217 27.4607 47.8205 26.6903C47.9031 26.4424 48.1314 26.242 48.3611 26.0405C48.4674 25.9472 48.574 25.8537 48.6666 25.755C48.8651 26.1876 48.9796 26.654 49.0039 27.1293C48.9031 27.7261 48.7256 28.31 48.5476 28.8958C48.4447 29.2343 48.3416 29.5735 48.2531 29.9161C48.0683 30.624 47.8874 31.3326 47.7066 32.041C47.3707 33.3572 47.0351 34.6724 46.6752 35.9794C46.6269 36.1462 46.4455 36.2736 46.2665 36.3992Z"
  />
</svg>
